<?xml version="1.0" encoding="utf-8"?>
<!-- Generator: Adobe Illustrator 27.4.1, SVG Export Plug-In . SVG Version: 6.00 Build 0)  -->
<svg version="1.1" id="Layer_1" xmlns="http://www.w3.org/2000/svg" xmlns:xlink="http://www.w3.org/1999/xlink" x="0px" y="0px"
	 viewBox="0 0 1080 1080" style="enable-background:new 0 0 1080 1080;" xml:space="preserve">
<style type="text/css">
	.st0{fill:#FF492C;}
	.st1{fill:#FFFFFF;}
</style>
<path class="st0" d="M233.17,477.71c-47.63,0-86.24,38.61-86.24,86.24c0,47.63,38.61,86.24,86.24,86.24s86.24-38.61,86.24-86.24
	C319.41,516.32,280.8,477.71,233.17,477.71z M252.13,529.45l-4.77-4.85c0,0,4.93-7.35,12.92-7.11c8,0.24,11.23,6.38,10.42,11.95
	s-15.1,10.34-14.46,14.38h14.58v6.38h-23.46c0,0,0-8.4,3.96-12.6c3.96-4.2,10.89-5.65,12.11-8.72
	C264.65,525.81,259.73,520.08,252.13,529.45z M233.44,613.85c-27.41,0-49.63-22.22-49.63-49.63s22.22-49.63,49.63-49.63
	c3.74,0,7.39,0.42,10.9,1.2l-10.26,19.97c-0.21,0-0.42-0.01-0.63-0.01c-15.72,0-28.47,12.75-28.47,28.47s12.75,28.47,28.47,28.47
	c7.23,0,13.83-2.7,18.85-7.14l11.15,18.21C255.1,610.09,244.71,613.85,233.44,613.85z M268.37,599.47l-12.44-21.65h-24.39
	l12.44-21.48h24.55l12.44,21.48L268.37,599.47z"/>
<g>
	<path class="st1" d="M528.84,562.71l31.41-31.65l-39.39-38.66l-72.49,73.05l72.49,71.93l41.08-41.32L528.84,562.71z M520.63,622.39
		l-56.54-56.94l56.54-56.86l23.44,22.96l-23.2,23.2l-8.46-8.94l-7.37,7.49l8.58,9.42l-19.81,19.57l7.01,7.97l20.3-19.57L546,596.05
		L520.63,622.39z"/>
	<path class="st1" d="M640.13,534.36c-1.77,2.39-4.6,3.95-7.81,3.95c-5.37,0-9.73-4.35-9.73-9.73s4.35-9.73,9.73-9.73
		c3.45,0,6.48,1.81,8.2,4.52l3.54-3.77c-2.7-3.53-6.95-5.82-11.75-5.82c-8.17,0-14.8,6.63-14.8,14.8s6.63,14.8,14.8,14.8
		c4.86,0,9.17-2.36,11.86-5.98L640.13,534.36z"/>
	<path class="st1" d="M937.51,605.34c-1.77,2.39-4.6,3.95-7.81,3.95c-5.37,0-9.73-4.35-9.73-9.73s4.35-9.73,9.73-9.73
		c3.45,0,6.48,1.81,8.2,4.52l3.54-3.77c-2.7-3.53-6.95-5.82-11.75-5.82c-8.17,0-14.8,6.63-14.8,14.8s6.63,14.8,14.8,14.8
		c4.86,0,9.17-2.36,11.86-5.98L937.51,605.34z"/>
	<path class="st1" d="M640.13,605.42c-1.77,2.39-4.6,3.95-7.81,3.95c-5.37,0-9.73-4.35-9.73-9.73s4.35-9.73,9.73-9.73
		c3.45,0,6.48,1.81,8.2,4.52l3.54-3.77c-2.7-3.53-6.95-5.82-11.75-5.82c-8.17,0-14.8,6.63-14.8,14.8s6.63,14.8,14.8,14.8
		c4.86,0,9.17-2.36,11.86-5.98L640.13,605.42z"/>
	<polygon class="st1" points="692.07,518.73 692.07,513.78 676.36,513.78 673.58,513.78 670.8,513.78 670.8,543.38 673.58,543.38 
		676.36,543.38 692.07,543.38 692.07,538.42 676.36,538.42 676.36,531.05 689.65,531.05 689.65,526.1 676.36,526.1 676.36,518.73 	
		"/>
	<polygon class="st1" points="985.53,589.71 985.53,584.76 969.82,584.76 967.04,584.76 964.26,584.76 964.26,614.36 967.04,614.36 
		969.82,614.36 985.53,614.36 985.53,609.4 969.82,609.4 969.82,602.03 983.11,602.03 983.11,597.08 969.82,597.08 969.82,589.71 	
		"/>
	<polygon class="st1" points="846.37,589.74 846.37,584.79 830.66,584.79 827.88,584.79 825.1,584.79 825.1,614.39 827.88,614.39 
		830.66,614.39 846.37,614.39 846.37,609.43 830.66,609.43 830.66,602.06 843.95,602.06 843.95,597.11 830.66,597.11 830.66,589.74 
			"/>
	<path class="st1" d="M732.78,513.78h-12.81v29h12.81c8.01,0,14.5-6.49,14.5-14.5C747.28,520.27,740.79,513.78,732.78,513.78z
		 M732.88,538.06h-8.19V518.2h8.19c5.49,0,9.93,4.45,9.93,9.93C742.81,533.61,738.36,538.06,732.88,538.06z"/>
	<path class="st1" d="M681.34,584.52c-8.32,0-15.07,6.75-15.07,15.07c0,8.32,6.75,15.07,15.07,15.07s15.07-6.75,15.07-15.07
		C696.41,591.26,689.67,584.52,681.34,584.52z M681.34,609.58c-5.52,0-10-4.48-10-10c0-5.52,4.48-10,10-10s10,4.48,10,10
		C691.34,605.11,686.86,609.58,681.34,609.58z"/>
	<path class="st1" d="M745.57,585.3l-10.42,18.14c-0.19,0.36-0.7,0.37-0.9,0.02l-11.24-18.15h-4.61v28.51h5.56v-18.85l8.88,15.42
		c0.19,0.32,0.53,0.53,0.91,0.53h1.46c0.37,0,0.71-0.19,0.9-0.5l8.51-13.99v17.4h5.56V585.3H745.57z"/>
	<path class="st1" d="M798.97,585.3l-10.42,18.14c-0.19,0.36-0.7,0.37-0.9,0.02l-11.24-18.15h-4.61v28.51h5.56v-18.85l8.88,15.42
		c0.19,0.32,0.53,0.53,0.91,0.53h1.46c0.37,0,0.71-0.19,0.9-0.5l8.51-13.99v17.4h5.56V585.3H798.97z"/>
	<path class="st1" d="M886.57,604.53c3.53-1.65,5.99-5.23,5.99-9.38v0c0-5.72-4.64-10.36-10.36-10.36h-8.22h-5.07v28.6h5.07v-7.88
		h7.43l4.85,7.88h6.66L886.57,604.53z M881.41,601.25h-7.43v-12.14h7.43c3.35,0,6.07,2.72,6.07,6.07S884.77,601.25,881.41,601.25z"
		/>
	<path class="st1" d="M776.76,563.09v-70.7H596.98v70.7v4.71v69.57h403.59h4.71v-3.99V567.8v-4.61v-0.1H776.76z M601.94,496.39
		H771.8v66.7H601.94V496.39z M1000.57,633.38H601.94V567.8H771.8v20.76l4.95-0.6V567.8h223.81V633.38z"/>
</g>
<path class="st1" d="M363.09,548.55l1.94-1.94c1.38-1.38,3.62-1.38,5,0l30.82,30.82c1.38,1.38,1.38,3.62,0,5l-1.94,1.94
	c-1.38,1.38-3.62,1.38-5,0l-30.82-30.82C361.71,552.17,361.71,549.93,363.09,548.55z"/>
<path class="st1" d="M398.91,546.6l1.94,1.94c1.38,1.38,1.38,3.62,0,5l-30.82,30.82c-1.38,1.38-3.62,1.38-5,0l-1.94-1.94
	c-1.38-1.38-1.38-3.62,0-5l30.82-30.82C395.29,545.22,397.53,545.22,398.91,546.6z"/>
</svg>
