<?xml version="1.0" encoding="UTF-8"?>
<svg xmlns="http://www.w3.org/2000/svg" version="1.1" xmlns:xlink="http://www.w3.org/1999/xlink" viewBox="0 0 965.2 560">
  <defs>
    <style>
      .cls-1 {
        fill: url(#linear-gradient-2);
      }

      .cls-2 {
        fill: #fff;
      }

      .cls-3 {
        fill: #ff3100;
      }

      .cls-4 {
        fill: url(#linear-gradient-4);
      }

      .cls-5 {
        fill: #fd3200;
      }

      .cls-6 {
        fill: url(#linear-gradient-3);
      }

      .cls-7 {
        fill: url(#linear-gradient-5);
      }

      .cls-8 {
        isolation: isolate;
      }

      .cls-9 {
        fill: #fefdfd;
      }

      .cls-10 {
        fill: #fd492c;
      }

      .cls-11 {
        fill: #25262e;
      }

      .cls-12 {
        fill: #fefefe;
      }

      .cls-13 {
        fill: #f8f8f8;
      }

      .cls-14 {
        fill: url(#linear-gradient);
      }
    </style>
    <linearGradient id="linear-gradient" x1="482.6" y1="272.8" x2="482.6" y2="558.8" gradientUnits="userSpaceOnUse">
      <stop offset="0" stop-color="#081721"/>
      <stop offset=".3" stop-color="#081721" stop-opacity=".9"/>
      <stop offset=".5" stop-color="#081721" stop-opacity=".7"/>
      <stop offset=".7" stop-color="#081721" stop-opacity=".2"/>
      <stop offset=".8" stop-color="#081721" stop-opacity="0"/>
    </linearGradient>
    <linearGradient id="linear-gradient-2" x1="-170.3" y1="-21.4" x2="251.2" y2="326.9" gradientUnits="userSpaceOnUse">
      <stop offset="0" stop-color="#444"/>
      <stop offset=".2" stop-color="#ddd"/>
      <stop offset=".3" stop-color="#444"/>
      <stop offset=".5" stop-color="#ddd"/>
      <stop offset=".7" stop-color="#444"/>
      <stop offset=".8" stop-color="#ddd"/>
      <stop offset="1" stop-color="#444"/>
    </linearGradient>
    <linearGradient id="linear-gradient-3" x1="591.4" y1="-21.4" x2="1012.8" y2="326.9" gradientUnits="userSpaceOnUse">
      <stop offset="0" stop-color="#444"/>
      <stop offset=".2" stop-color="#ddd"/>
      <stop offset=".3" stop-color="#444"/>
      <stop offset=".5" stop-color="#ddd"/>
      <stop offset=".7" stop-color="#444"/>
      <stop offset=".8" stop-color="#ddd"/>
      <stop offset="1" stop-color="#444"/>
    </linearGradient>
    <linearGradient id="linear-gradient-4" x1="72.9" y1="-133.3" x2="494.3" y2="215" gradientUnits="userSpaceOnUse">
      <stop offset="0" stop-color="#444"/>
      <stop offset=".2" stop-color="#ddd"/>
      <stop offset=".3" stop-color="#444"/>
      <stop offset=".5" stop-color="#ddd"/>
      <stop offset=".7" stop-color="#444"/>
      <stop offset=".8" stop-color="#ddd"/>
      <stop offset="1" stop-color="#444"/>
    </linearGradient>
    <linearGradient id="linear-gradient-5" x1="345.8" y1="-133.3" x2="767.2" y2="215" gradientUnits="userSpaceOnUse">
      <stop offset="0" stop-color="#444"/>
      <stop offset=".2" stop-color="#ddd"/>
      <stop offset=".3" stop-color="#444"/>
      <stop offset=".5" stop-color="#ddd"/>
      <stop offset=".7" stop-color="#444"/>
      <stop offset=".8" stop-color="#ddd"/>
      <stop offset="1" stop-color="#444"/>
    </linearGradient>
  </defs>
  <!-- Generator: Adobe Illustrator 28.7.0, SVG Export Plug-In . SVG Version: 1.2.0 Build 136)  -->
  <g>
    <g id="Layer_1">
      <g id="Layer_1-2" data-name="Layer_1">
        <g id="Layer_1-2">
          <g>
            <g>
              <polygon class="cls-14" points="756.9 358.5 757.3 244.6 208.2 244.6 208.1 358.5 0 358.7 0 560 965.1 560 965.2 358.5 756.9 358.5"/>
              <g>
                <g>
                  <polygon class="cls-2" points="187.7 291.1 100.1 336 12.4 291.1 12.4 113.5 187.7 113.5 187.7 291.1"/>
                  <path class="cls-1" d="M100.1,337.8l-.7-.4-88.5-45.3V111.9h178.5v180.2l-.9.4-88.4,45.2h0ZM14,290.2l86.1,44,86.1-44V115.2H14v175h0Z"/>
                </g>
                <polygon class="cls-13" points="14 290.2 186.1 115.1 186.1 290.2 100.1 334.2 14 290.2"/>
                <polygon class="cls-5" points="191.7 253.9 7.6 253.9 1.6 238.1 7.6 222.4 191.8 222.6 198.6 238.3 191.7 253.9"/>
                <g>
                  <polygon class="cls-3" points="120.5 147.2 100 158.4 79.6 147.2 79.6 115.1 120.5 115.1 120.5 147.2"/>
                  <g>
                    <path class="cls-12" d="M105.2,140.7c.9,1.5,1.7,3,2.6,4.5.2.4,0,.5-.3.7-2.2,1.5-4.7,2.2-7.4,2.2-6.4-.2-11.4-4.6-12.5-11-1.2-6.9,4-13.9,11-14.7,1.2-.1,2.5-.1,3.7,0,.4,0,.6.1.3.6-.7,1.5-1.4,2.9-2.1,4.4-.3.6-.7.4-1.1.5-3.1.4-5.6,2.7-6.3,5.7-.6,2.9.5,5.8,2.9,7.5s5.6,1.8,8.1.2c.3-.2.6-.4,1-.7h.1Z"/>
                    <path class="cls-12" d="M99.8,138.8c1.1-1.8,2-3.5,3-5.2.1-.2.3-.3.6-.3h5.6c.3,0,.5.1.6.4.9,1.6,1.9,3.2,2.8,4.8.1.2.2.4,0,.6-1,1.7-2,3.4-3,5.2-1-1.7-1.9-3.3-2.9-5-.3-.5-.5-.6-1-.6h-5.7Z"/>
                    <path class="cls-9" d="M107,131.5h-2.4c-.4,0-.5-.1-.5-.5,0-1.7.7-2.9,2.1-3.7.5-.3,1-.5,1.5-.8.3-.2.6-.6.4-1-.1-.4-.5-.6-.9-.6-.7,0-1.4.2-1.7.8-.3.4-.4.3-.7,0-.8-.8-.8-1,0-1.7,1.1-.9,2.7-1.1,4-.3,1.3.8,1.6,2.5.6,3.6-.3.4-.7.6-1.1.9-.4.2-.8.4-1.2.7-.4.2-.9.5-.8,1,0,.2.7.1,1,.1h2.2c.7,0,.5.6.5,1s.1.7-.5.7h-2.4v-.2h-.1Z"/>
                  </g>
                </g>
                <g class="cls-8">
                  <g class="cls-8">
                    <path class="cls-11" d="M60.2,183.8v4.8h-6.5v19.7h-6v-19.7h-6.5v-4.8h19Z"/>
                    <path class="cls-11" d="M66.9,207.3c-1.5-.8-2.7-2-3.6-3.5s-1.3-3.3-1.3-5.3.4-3.8,1.3-5.3,2.1-2.7,3.6-3.5,3.2-1.2,5.2-1.2,3.6.4,5.2,1.2,2.7,2,3.6,3.5c.9,1.5,1.3,3.3,1.3,5.3s-.4,3.8-1.3,5.3-2.1,2.7-3.7,3.5c-1.5.8-3.3,1.2-5.2,1.2s-3.6-.4-5.1-1.2ZM75,202.1c.8-.8,1.2-2,1.2-3.6s-.4-2.7-1.2-3.6c-.8-.8-1.7-1.3-2.9-1.3s-2.1.4-2.9,1.2c-.8.8-1.1,2-1.1,3.6s.4,2.7,1.1,3.6c.8.8,1.7,1.3,2.8,1.3s2.1-.4,2.9-1.3h.1Z"/>
                    <path class="cls-11" d="M93.7,189.3c1-.6,2.2-.8,3.6-.8s3.1.4,4.3,1.2,2.3,2,3.1,3.5,1.1,3.3,1.1,5.3-.4,3.8-1.1,5.3c-.8,1.5-1.8,2.7-3.1,3.5s-2.7,1.2-4.3,1.2-2.5-.3-3.6-.8-1.8-1.3-2.4-2.2v12h-6v-28.7h6v2.7c.6-.9,1.4-1.6,2.4-2.2ZM98.6,195c-.8-.8-1.8-1.3-3-1.3s-2.2.4-3,1.3-1.2,2-1.2,3.5.4,2.7,1.2,3.5c.8.9,1.8,1.3,3,1.3s2.2-.4,3-1.3,1.3-2,1.3-3.5-.4-2.7-1.2-3.5h-.1Z"/>
                    <path class="cls-11" d="M133.7,188h-10.9v4.8c.5-.5,1.1-.9,1.9-1.3.8-.3,1.7-.5,2.7-.5,1.7,0,3.2.4,4.3,1.2,1.1.8,2,1.8,2.5,3.1s.8,2.6.8,4.1c0,2.7-.8,4.9-2.3,6.5s-3.7,2.4-6.5,2.4-3.5-.3-4.8-1c-1.4-.6-2.4-1.5-3.2-2.7-.7-1.1-1.1-2.4-1.2-3.9h5.8c.1.7.5,1.3,1,1.8s1.3.7,2.2.7,1.9-.3,2.4-1,.8-1.6.8-2.8-.3-2-.8-2.6c-.6-.6-1.4-.9-2.4-.9s-1.4.2-1.9.6-.8.9-1,1.5h-5.7v-15.1h16.3v5.2h0Z"/>
                    <path class="cls-11" d="M140.7,185.7c1.5-2.3,4-3.4,7.5-3.4s5.9,1.1,7.5,3.4c1.5,2.3,2.3,5.4,2.3,9.4s-.8,7.2-2.3,9.5-4,3.4-7.5,3.4-5.9-1.1-7.5-3.4c-1.5-2.3-2.3-5.5-2.3-9.5s.8-7.1,2.3-9.4ZM151.4,189.7c-.5-1.3-1.6-1.9-3.2-1.9s-2.7.6-3.2,1.9-.8,3.1-.8,5.4,0,2.9.3,3.9c.2,1,.6,1.9,1.1,2.5.6.6,1.4,1,2.5,1s2-.3,2.5-1c.6-.6.9-1.5,1.1-2.5.2-1,.3-2.3.3-3.9,0-2.3-.3-4.1-.8-5.4h.2Z"/>
                  </g>
                </g>
                <g class="cls-8">
                  <g class="cls-8">
                    <path class="cls-11" d="M36.4,276.9v-7.4h2.6c.9,0,1.6.2,2,.5.5.3.7.8.7,1.5s0,.7-.3,1c-.2.3-.4.5-.8.6.4,0,.7.3.9.6.2.3.3.6.3,1.1s-.2,1.2-.7,1.6-1.1.6-1.9.6h-2.9.1ZM37.9,272.6h1.1c.8,0,1.2-.3,1.2-.9s0-.6-.3-.7c-.2-.1-.5-.2-.9-.2h-1.1v1.9h0ZM37.9,273.7v2h1.3c.4,0,.6,0,.8-.3.2-.2.3-.4.3-.7,0-.7-.4-1-1.1-1h-1.4,0Z"/>
                    <path class="cls-11" d="M47.4,273.7h-2.9v2h3.4v1.2h-5v-7.4h4.9v1.2h-3.4v1.8h2.9v1.2h0Z"/>
                    <path class="cls-11" d="M52.7,275c0-.3,0-.5-.3-.7s-.6-.3-1.1-.5-.9-.3-1.3-.5c-.8-.5-1.3-1.1-1.3-1.8s0-.8.3-1.1c.2-.3.5-.6,1-.7.4-.2.9-.3,1.4-.3s1,0,1.4.3c.4.2.7.5,1,.8s.3.7.3,1.2h-1.5c0-.3,0-.6-.3-.8-.2-.2-.5-.3-.9-.3s-.7,0-.9.2c-.2.2-.3.4-.3.6s0,.4.4.6c.2.2.6.3,1.1.5.9.3,1.5.6,1.9,1s.6.9.6,1.4-.2,1.1-.7,1.5-1.1.5-2,.5-1.1-.1-1.6-.3-.8-.5-1.1-.9c-.2-.4-.4-.8-.4-1.3h1.5c0,.8.5,1.2,1.5,1.2s.6,0,.8-.2c.2-.1.3-.4.3-.6l.2.2Z"/>
                    <path class="cls-11" d="M60.8,270.7h-2.3v6.2h-1.5v-6.2h-2.2v-1.2h6v1.2Z"/>
                    <path class="cls-11" d="M67.8,275c0-.3,0-.5-.3-.7s-.6-.3-1.1-.5-.9-.3-1.3-.5c-.8-.5-1.3-1.1-1.3-1.8s0-.8.3-1.1c.2-.3.5-.6,1-.7.4-.2.9-.3,1.4-.3s1,0,1.4.3c.4.2.7.5,1,.8s.3.7.3,1.2h-1.5c0-.3,0-.6-.3-.8-.2-.2-.5-.3-.9-.3s-.7,0-.9.2c-.2.2-.3.4-.3.6s0,.4.4.6c.2.2.6.3,1.1.5.9.3,1.5.6,1.9,1s.6.9.6,1.4-.2,1.1-.7,1.5-1.1.5-2,.5-1.1-.1-1.6-.3-.8-.5-1.1-.9c-.2-.4-.4-.8-.4-1.3h1.5c0,.8.5,1.2,1.5,1.2s.6,0,.8-.2c.2-.1.3-.4.3-.6l.2.2Z"/>
                    <path class="cls-11" d="M76.4,273.4c0,.7-.1,1.4-.4,1.9-.3.5-.6,1-1.1,1.3s-1,.4-1.6.4-1.2-.1-1.6-.4c-.5-.3-.9-.7-1.1-1.3-.3-.5-.4-1.2-.4-1.9v-.4c0-.7,0-1.4.4-1.9.3-.6.6-1,1.1-1.3s1-.4,1.6-.4,1.2.1,1.6.4c.5.3.8.7,1.1,1.3.3.6.4,1.2.4,1.9v.3h0ZM74.9,273c0-.8-.1-1.4-.4-1.8-.3-.4-.7-.6-1.2-.6s-.9.2-1.2.6-.4,1-.4,1.8v.4c0,.8.1,1.3.4,1.8.3.4.7.6,1.2.6s.9-.2,1.2-.6.4-1,.4-1.8v-.4Z"/>
                    <path class="cls-11" d="M82,273.9h-2.9v3h-1.5v-7.4h4.8v1.2h-3.3v1.9h2.9v1.2h0Z"/>
                    <path class="cls-11" d="M88.9,270.7h-2.3v6.2h-1.5v-6.2h-2.2v-1.2h6v1.2Z"/>
                    <path class="cls-11" d="M95.6,274.8l1-5.3h1.5l-1.6,7.4h-1.5l-1.2-4.9-1.2,4.9h-1.5l-1.6-7.4h1.5l1,5.3,1.2-5.3h1.3l1.2,5.3h0Z"/>
                    <path class="cls-11" d="M102.9,275.4h-2.7l-.5,1.5h-1.6l2.8-7.4h1.4l2.8,7.4h-1.6l-.5-1.5h0ZM100.6,274.1h1.8l-.9-2.8-.9,2.8h0Z"/>
                    <path class="cls-11" d="M108.5,274.2h-1.2v2.7h-1.5v-7.4h2.7c.9,0,1.5.2,2,.6s.7.9.7,1.7-.1.9-.3,1.3-.5.6-1,.8l1.6,3h-1.6l-1.4-2.7ZM107.2,273h1.2c.4,0,.7,0,.9-.3.2-.2.3-.5.3-.8s0-.6-.3-.8c-.2-.2-.5-.3-.9-.3h-1.2v2.2h0Z"/>
                    <path class="cls-11" d="M116.8,273.7h-2.9v2h3.4v1.2h-5v-7.4h4.9v1.2h-3.4v1.8h2.9v1.2h.1Z"/>
                    <path class="cls-11" d="M125,275.4h-2.7l-.5,1.5h-1.6l2.8-7.4h1.4l2.8,7.4h-1.6l-.5-1.5h0ZM122.7,274.1h1.8l-.9-2.8-.9,2.8h0Z"/>
                    <path class="cls-11" d="M133.4,274.8l1-5.3h1.5l-1.6,7.4h-1.5l-1.2-4.9-1.2,4.9h-1.5l-1.6-7.4h1.5l1,5.3,1.2-5.3h1.3l1.2,5.3h0Z"/>
                    <path class="cls-11" d="M140.6,275.4h-2.7l-.5,1.5h-1.6l2.8-7.4h1.4l2.8,7.4h-1.6l-.5-1.5h0ZM138.4,274.1h1.8l-.9-2.8-.9,2.8h0Z"/>
                    <path class="cls-11" d="M146.2,274.2h-1.2v2.7h-1.5v-7.4h2.7c.9,0,1.5.2,2,.6s.7.9.7,1.7-.1.9-.3,1.3-.5.6-1,.8l1.6,3h-1.6l-1.4-2.7ZM145,273h1.2c.4,0,.7,0,.9-.3.2-.2.3-.5.3-.8s0-.6-.3-.8c-.2-.2-.5-.3-.9-.3h-1.2v2.2h0Z"/>
                    <path class="cls-11" d="M150.1,276.9v-7.4h2.3c.6,0,1.2.1,1.7.4s.9.7,1.2,1.2.4,1.2.4,1.8v.3c0,.7-.1,1.3-.4,1.8-.3.5-.7,1-1.2,1.2-.5.3-1.1.4-1.7.4h-2.3v.3ZM151.6,270.7v4.9h.7c.6,0,1.1-.2,1.4-.6.3-.4.5-.9.5-1.7v-.4c0-.8-.2-1.3-.5-1.7s-.8-.6-1.4-.6h-.8.1Z"/>
                    <path class="cls-11" d="M160.7,275c0-.3-.1-.5-.3-.7s-.6-.3-1.1-.5-.9-.3-1.3-.5c-.8-.5-1.3-1.1-1.3-1.8s.1-.8.3-1.1c.2-.3.5-.6,1-.7.4-.2.9-.3,1.4-.3s1,0,1.4.3c.4.2.7.5,1,.8s.3.7.3,1.2h-1.5c0-.3-.1-.6-.3-.8-.2-.2-.5-.3-.9-.3s-.7,0-.9.2-.3.4-.3.6.1.4.4.6c.2.2.6.3,1.1.5.9.3,1.5.6,1.9,1s.6.9.6,1.4-.2,1.1-.7,1.5-1.1.5-2,.5-1.1-.1-1.6-.3-.8-.5-1.1-.9c-.2-.4-.4-.8-.4-1.3h1.5c0,.8.5,1.2,1.5,1.2s.6,0,.8-.2c.2-.1.3-.4.3-.6l.2.2Z"/>
                  </g>
                </g>
                <g class="cls-8">
                  <g class="cls-8">
                    <path class="cls-11" d="M87,302.1h-10.1v-2l4.8-5.1c.7-.7,1.1-1.3,1.5-1.9s.5-1,.5-1.5-.2-1.2-.5-1.5c-.3-.4-.8-.6-1.4-.6s-1.2.2-1.6.7-.6,1.1-.6,1.8h-2.9c0-.9.2-1.7.6-2.5.4-.7,1-1.3,1.8-1.8.8-.4,1.7-.6,2.7-.6,1.5,0,2.7.4,3.5,1.1s1.3,1.8,1.3,3.1-.2,1.5-.6,2.2c-.4.8-1,1.6-1.9,2.7l-3.4,3.5h6.4v2.4h-.1Z"/>
                    <path class="cls-11" d="M98.8,296c0,2-.4,3.6-1.3,4.7s-2.1,1.6-3.7,1.6-2.8-.5-3.7-1.6-1.3-2.6-1.3-4.6v-2.7c0-2.1.4-3.6,1.3-4.7.9-1.1,2.1-1.6,3.7-1.6s2.8.5,3.7,1.6,1.3,2.6,1.3,4.6v2.7ZM95.9,293c0-1.2-.2-2.1-.5-2.7s-.9-.8-1.6-.8-1.2.3-1.5.8-.5,1.4-.5,2.5v3.6c0,1.2.2,2.1.5,2.7.3.6.9.9,1.6.9s1.2-.3,1.6-.8c.3-.6.5-1.4.5-2.6v-3.5h-.1Z"/>
                    <path class="cls-11" d="M110.9,302.1h-10.1v-2l4.8-5.1c.7-.7,1.1-1.3,1.5-1.9s.5-1,.5-1.5-.2-1.2-.5-1.5c-.3-.4-.8-.6-1.4-.6s-1.2.2-1.6.7-.6,1.1-.6,1.8h-2.9c0-.9.2-1.7.6-2.5.4-.7,1-1.3,1.8-1.8.8-.4,1.7-.6,2.7-.6,1.5,0,2.7.4,3.5,1.1s1.3,1.8,1.3,3.1-.2,1.5-.6,2.2c-.4.8-1,1.6-1.9,2.7l-3.4,3.5h6.4v2.4h-.1Z"/>
                    <path class="cls-11" d="M121.4,296.5h1.7v2.4h-1.7v3.2h-2.9v-3.2h-6.1v-1.8c-.1,0,6-9.7,6-9.7h3v9.2h0ZM115.2,296.5h3.3v-5.2l-.2.3-3.1,4.9Z"/>
                  </g>
                </g>
                <g class="cls-8">
                  <g class="cls-8">
                    <path class="cls-2" d="M39.7,230.5c-.3.5-.7.9-1.2,1.1-.5.3-1.2.4-2,.4h-1.5v3.6h-2.4v-9.9h3.9c.8,0,1.5.1,2,.4s1,.6,1.2,1.1c.3.5.4,1,.4,1.6s0,1.1-.4,1.6h0ZM37.3,229.8c.2-.2.3-.5.3-.9s0-.7-.3-.9-.6-.3-1-.3h-1.3v2.5h1.3c.5,0,.8-.1,1-.3h0Z"/>
                    <path class="cls-2" d="M44.8,228c.4-.2.9-.4,1.4-.4v2.6h-.7c-.6,0-1.1.1-1.4.4s-.5.7-.5,1.4v3.7h-2.4v-7.9h2.4v1.3c.3-.4.6-.8,1.1-1h0Z"/>
                    <path class="cls-2" d="M48.9,235.2c-.6-.3-1.1-.8-1.5-1.4s-.5-1.3-.5-2.1.2-1.5.5-2.1c.4-.6.8-1.1,1.5-1.4s1.3-.5,2.1-.5,1.5.2,2.1.5,1.1.8,1.5,1.4.5,1.3.5,2.1-.2,1.5-.5,2.1c-.4.6-.9,1.1-1.5,1.4s-1.3.5-2.1.5-1.5-.2-2.1-.5ZM52.2,233.1c.3-.3.5-.8.5-1.5s-.2-1.1-.5-1.5c-.3-.3-.7-.5-1.2-.5s-.9.2-1.2.5c-.3.3-.5.8-.5,1.5s.2,1.1.5,1.5c.3.3.7.5,1.1.5s.9-.2,1.2-.5h0Z"/>
                    <path class="cls-2" d="M56.4,229.5c.3-.6.7-1.1,1.2-1.4s1.1-.5,1.8-.5,1,.1,1.4.3.8.5,1,.9v-3.7h2.4v10.4h-2.4v-1.1c-.2.4-.5.7-1,.9-.4.2-.9.3-1.5.3s-1.2-.2-1.8-.5c-.5-.3-.9-.8-1.2-1.4-.3-.6-.5-1.3-.5-2.1s.2-1.5.5-2.1h0ZM61.3,230.2c-.3-.3-.7-.5-1.2-.5s-.9.2-1.2.5c-.3.3-.5.8-.5,1.4s.2,1.1.5,1.4.7.5,1.2.5.9-.2,1.2-.5c.3-.3.5-.8.5-1.4s-.2-1.1-.5-1.4Z"/>
                    <path class="cls-2" d="M73.7,227.7v7.9h-2.4v-1.1c-.2.3-.6.6-1,.8-.4.2-.9.3-1.4.3s-1.1-.1-1.6-.4-.8-.7-1.1-1.2c-.3-.5-.4-1.1-.4-1.8v-4.6h2.4v4.3c0,.5,0,.9.4,1.2.3.3.6.4,1.1.4s.8-.1,1.1-.4c.3-.3.4-.7.4-1.2v-4.3h2.5Z"/>
                    <path class="cls-2" d="M75.5,229.5c.3-.6.8-1.1,1.4-1.4.6-.3,1.3-.5,2.1-.5s1.8.3,2.5.8,1.1,1.2,1.3,2.2h-2.6c-.2-.6-.6-.9-1.3-.9s-.8.2-1.1.5-.4.8-.4,1.5.1,1.1.4,1.5c.3.3.6.5,1.1.5s1-.3,1.3-.9h2.6c-.2.9-.6,1.6-1.3,2.2s-1.5.8-2.5.8-1.5-.2-2.1-.5-1.1-.8-1.4-1.4c-.3-.6-.5-1.3-.5-2.1s.2-1.5.5-2.1v-.2Z"/>
                    <path class="cls-2" d="M88.4,233.6v2h-1.2c-.9,0-1.6-.2-2-.6-.5-.4-.7-1.1-.7-2.1v-3.1h-1v-2h1v-1.9h2.4v1.9h1.6v2h-1.6v3.2c0,.2,0,.4.2.5.1.1.3.2.6.2h.9-.2Z"/>
                    <path class="cls-2" d="M91.1,235.4c-.5-.2-1-.6-1.3-1s-.5-.9-.5-1.4h2.4c0,.3.2.5.4.7s.5.3.8.3.5,0,.7-.2.2-.3.2-.5-.1-.4-.4-.5-.6-.2-1.1-.4c-.6-.1-1-.3-1.4-.4s-.7-.4-1-.7c-.3-.3-.4-.7-.4-1.3s.1-.9.4-1.2c.2-.4.6-.7,1.1-.9.5-.2,1.1-.3,1.7-.3,1,0,1.8.2,2.3.7.6.5.9,1.1,1,1.9h-2.2c0-.3-.2-.5-.4-.6s-.5-.2-.8-.2-.5,0-.6.2c-.2.1-.2.3-.2.4s.1.4.4.5c.2.1.6.2,1.1.3.6.2,1.1.3,1.4.4.4.1.7.4,1,.7.3.3.4.8.4,1.3s-.1.9-.4,1.2c-.3.4-.6.6-1.1.9-.5.2-1,.3-1.7.3s-1.3-.1-1.8-.4v.2Z"/>
                    <path class="cls-2" d="M107,225.7v1.9h-4v2.1h3v1.9h-3v4h-2.4v-9.9h6.4Z"/>
                    <path class="cls-2" d="M109.8,235.2c-.6-.3-1.1-.8-1.5-1.4s-.5-1.3-.5-2.1.2-1.5.5-2.1c.4-.6.8-1.1,1.5-1.4s1.3-.5,2.1-.5,1.5.2,2.1.5,1.1.8,1.5,1.4.5,1.3.5,2.1-.2,1.5-.5,2.1c-.4.6-.9,1.1-1.5,1.4s-1.3.5-2.1.5-1.5-.2-2.1-.5ZM113,233.1c.3-.3.5-.8.5-1.5s-.2-1.1-.5-1.5c-.3-.3-.7-.5-1.2-.5s-.9.2-1.2.5-.5.8-.5,1.5.2,1.1.5,1.5c.3.3.7.5,1.1.5s.9-.2,1.2-.5h0Z"/>
                    <path class="cls-2" d="M120.7,228c.4-.2.9-.4,1.4-.4v2.6h-.7c-.6,0-1.1.1-1.4.4-.3.3-.5.7-.5,1.4v3.7h-2.4v-7.9h2.4v1.3c.3-.4.6-.8,1.1-1h0Z"/>
                    <path class="cls-2" d="M128.7,227.6v2h3.2v1.9h-3.2v2.2h3.7v1.9h-6.1v-9.9h6.1v1.9h-3.7Z"/>
                    <path class="cls-2" d="M146.3,228.5c.6.6.9,1.4.9,2.5v4.6h-2.4v-4.3c0-.5-.1-.9-.4-1.2-.3-.3-.6-.4-1.1-.4s-.8.1-1.1.4-.4.7-.4,1.2v4.3h-2.4v-4.3c0-.5-.1-.9-.4-1.2s-.6-.4-1.1-.4-.8.1-1.1.4-.4.7-.4,1.2v4.3h-2.4v-7.9h2.4v1c.2-.3.6-.6,1-.8.4-.2.8-.3,1.3-.3s1.1.1,1.6.4.8.6,1.1,1.1c.3-.4.6-.8,1.1-1.1.5-.3,1-.4,1.5-.4,1,0,1.8.3,2.3.9h0Z"/>
                    <path class="cls-2" d="M148.8,229.5c.3-.6.7-1.1,1.2-1.4s1.1-.5,1.8-.5,1,.1,1.5.3c.4.2.7.5,1,.9v-1.1h2.4v7.9h-2.4v-1.1c-.2.4-.6.7-1,.9-.4.2-.9.3-1.5.3s-1.2-.2-1.7-.5-.9-.8-1.2-1.4-.5-1.3-.5-2.1.2-1.5.5-2.1h-.1ZM153.8,230.2c-.3-.3-.7-.5-1.2-.5s-.9.2-1.2.5-.5.8-.5,1.4.2,1.1.5,1.4.7.5,1.2.5.9-.2,1.2-.5.5-.8.5-1.4-.2-1.1-.5-1.4Z"/>
                    <path class="cls-2" d="M158.6,226.5c-.3-.2-.4-.6-.4-.9s.1-.7.4-.9c.3-.2.6-.4,1-.4s.8.1,1,.4c.3.2.4.6.4.9s-.1.7-.4.9c-.3.2-.6.4-1,.4s-.8-.1-1-.4ZM160.8,227.7v7.9h-2.4v-7.9h2.4Z"/>
                    <path class="cls-2" d="M165,225.2v10.4h-2.4v-10.4h2.4Z"/>
                  </g>
                  <g class="cls-8">
                    <path class="cls-2" d="M67.7,246.2c.3.4.5,1,.5,1.5,0,.8-.3,1.5-.9,2s-1.4.7-2.4.7h-4.6v-9.9h4.5c1,0,1.8.2,2.4.7s.9,1.1.9,1.9-.2,1.1-.5,1.5-.7.7-1.2.8c.6.1,1,.4,1.4.9h-.1ZM62.8,244.5h1.6c.4,0,.7,0,.9-.3s.3-.4.3-.8,0-.6-.3-.8-.5-.3-.9-.3h-1.6v2.1h0ZM65.5,248.2c.2-.2.3-.4.3-.8s0-.6-.3-.8-.5-.3-1-.3h-1.7v2.2h1.8c.4,0,.7,0,.9-.3h0Z"/>
                    <path class="cls-2" d="M77.4,242.5v7.9h-2.4v-1.1c-.2.3-.6.6-1,.8-.4.2-.9.3-1.4.3s-1.1-.1-1.6-.4-.8-.7-1.1-1.2c-.3-.5-.4-1.1-.4-1.8v-4.6h2.4v4.3c0,.5.1.9.4,1.2.3.3.6.4,1.1.4s.8-.1,1.1-.4.4-.7.4-1.2v-4.3h2.5Z"/>
                    <path class="cls-2" d="M80.5,250.2c-.5-.2-1-.6-1.3-1s-.5-.9-.5-1.4h2.4c0,.3.2.5.4.7s.5.3.8.3.5,0,.7-.2.2-.3.2-.5-.1-.4-.4-.5-.6-.2-1.1-.4c-.6-.1-1-.3-1.4-.4s-.7-.4-1-.7c-.3-.3-.4-.7-.4-1.3s.1-.9.4-1.2c.2-.4.6-.7,1.1-.9.5-.2,1.1-.3,1.7-.3,1,0,1.8.2,2.3.7.6.5.9,1.1,1,1.9h-2.2c0-.3-.2-.5-.4-.6s-.5-.2-.8-.2-.5,0-.6.2c-.2.1-.2.3-.2.4s.1.4.4.5c.2.1.6.2,1.1.3.6.2,1.1.3,1.4.4.4.1.7.4,1,.7.3.3.4.8.4,1.3s-.1.9-.4,1.2c-.3.4-.6.6-1.1.9-.5.2-1,.3-1.7.3s-1.3-.1-1.8-.4v.2Z"/>
                    <path class="cls-2" d="M87.2,241.3c-.3-.2-.4-.6-.4-.9s.1-.7.4-.9c.3-.2.6-.4,1-.4s.8.1,1,.4c.3.2.4.6.4.9s-.1.7-.4.9c-.3.2-.6.4-1,.4s-.8-.1-1-.4ZM89.4,242.5v7.9h-2.4v-7.9h2.4Z"/>
                    <path class="cls-2" d="M98.2,243.3c.5.6.8,1.4.8,2.5v4.6h-2.4v-4.3c0-.5-.1-.9-.4-1.2-.3-.3-.6-.4-1.1-.4s-.8.1-1.1.4-.4.7-.4,1.2v4.3h-2.4v-7.9h2.4v1c.2-.3.6-.6,1-.8.4-.2.9-.3,1.4-.3.9,0,1.7.3,2.2.9h0Z"/>
                    <path class="cls-2" d="M108.1,247h-5.5c0,.5.2.9.5,1.1.3.3.6.4,1,.4.6,0,1-.3,1.3-.8h2.6c-.1.5-.4,1-.7,1.4s-.8.7-1.3,1c-.5.2-1.1.4-1.7.4s-1.5-.2-2.1-.5-1.1-.8-1.4-1.4c-.3-.6-.5-1.3-.5-2.1s.2-1.5.5-2.1.8-1.1,1.4-1.4,1.3-.5,2.1-.5,1.4.2,2,.5,1.1.8,1.4,1.4c.3.6.5,1.3.5,2.1s0,.5,0,.7v-.2ZM105.6,245.7c0-.4-.1-.7-.4-1-.3-.2-.6-.4-1.1-.4s-.7.1-1,.4-.4.6-.5,1h3Z"/>
                    <path class="cls-2" d="M110.8,250.2c-.5-.2-1-.6-1.3-1s-.5-.9-.5-1.4h2.4c0,.3.2.5.4.7s.5.3.8.3.5,0,.7-.2.2-.3.2-.5-.1-.4-.4-.5-.6-.2-1.1-.4c-.6-.1-1-.3-1.4-.4s-.7-.4-1-.7c-.3-.3-.4-.7-.4-1.3s.1-.9.4-1.2c.2-.4.6-.7,1.1-.9.5-.2,1.1-.3,1.7-.3,1,0,1.8.2,2.3.7.6.5.9,1.1,1,1.9h-2.2c0-.3-.2-.5-.4-.6s-.5-.2-.8-.2-.5,0-.6.2c-.2.1-.2.3-.2.4s.1.4.4.5c.2.1.6.2,1.1.3.6.2,1.1.3,1.4.4.4.1.7.4,1,.7.3.3.4.8.4,1.3s-.1.9-.4,1.2c-.3.4-.6.6-1.1.9-.5.2-1,.3-1.7.3s-1.3-.1-1.8-.4v.2Z"/>
                    <path class="cls-2" d="M118.6,250.2c-.5-.2-1-.6-1.3-1s-.5-.9-.5-1.4h2.4c0,.3.2.5.4.7s.5.3.8.3.5,0,.7-.2.2-.3.2-.5-.1-.4-.4-.5-.6-.2-1.1-.4c-.6-.1-1-.3-1.4-.4s-.7-.4-1-.7c-.3-.3-.4-.7-.4-1.3s.1-.9.4-1.2c.2-.4.6-.7,1.1-.9.5-.2,1.1-.3,1.7-.3,1,0,1.8.2,2.3.7.6.5.9,1.1,1,1.9h-2.2c0-.3-.2-.5-.4-.6s-.5-.2-.8-.2-.5,0-.6.2c-.2.1-.2.3-.2.4s.1.4.4.5c.2.1.6.2,1.1.3.6.2,1.1.3,1.4.4.4.1.7.4,1,.7.3.3.4.8.4,1.3s-.1.9-.4,1.2c-.3.4-.6.6-1.1.9-.5.2-1,.3-1.7.3s-1.3-.1-1.8-.4v.2Z"/>
                    <path class="cls-2" d="M132.5,247h-5.5c0,.5.2.9.5,1.1.3.3.6.4,1,.4.6,0,1-.3,1.3-.8h2.6c-.1.5-.4,1-.7,1.4s-.8.7-1.3,1c-.5.2-1.1.4-1.7.4s-1.5-.2-2.1-.5-1.1-.8-1.4-1.4c-.3-.6-.5-1.3-.5-2.1s.2-1.5.5-2.1.8-1.1,1.4-1.4,1.3-.5,2.1-.5,1.4.2,2,.5,1.1.8,1.4,1.4c.3.6.5,1.3.5,2.1s0,.5,0,.7v-.2ZM130.1,245.7c0-.4-.1-.7-.4-1-.3-.2-.6-.4-1.1-.4s-.7.1-1,.4-.4.6-.5,1h3Z"/>
                    <path class="cls-2" d="M135.2,250.2c-.5-.2-1-.6-1.3-1s-.5-.9-.5-1.4h2.4c0,.3.2.5.4.7s.5.3.8.3.5,0,.7-.2.2-.3.2-.5-.1-.4-.4-.5-.6-.2-1.1-.4c-.6-.1-1-.3-1.4-.4s-.7-.4-1-.7c-.3-.3-.4-.7-.4-1.3s.1-.9.4-1.2c.2-.4.6-.7,1.1-.9.5-.2,1.1-.3,1.7-.3,1,0,1.8.2,2.3.7.6.5.9,1.1,1,1.9h-2.2c0-.3-.2-.5-.4-.6s-.5-.2-.8-.2-.5,0-.6.2c-.2.1-.2.3-.2.4s.1.4.4.5c.2.1.6.2,1.1.3.6.2,1.1.3,1.4.4.4.1.7.4,1,.7.3.3.4.8.4,1.3s-.1.9-.4,1.2c-.3.4-.6.6-1.1.9-.5.2-1,.3-1.7.3s-1.3-.1-1.8-.4v.2Z"/>
                  </g>
                </g>
              </g>
              <g>
                <g>
                  <polygon class="cls-2" points="949.4 291.1 861.7 336 774 291.1 774 113.5 949.4 113.5 949.4 291.1"/>
                  <path class="cls-6" d="M861.7,337.8l-.7-.4-88.5-45.3V111.9h178.5v180.2l-.9.4-88.4,45.2h0ZM775.6,290.2l86.1,44,86.1-44V115.2h-172.2v175h0Z"/>
                </g>
                <polygon class="cls-13" points="775.6 290.2 947.8 115.1 947.8 290.2 861.7 334.2 775.6 290.2"/>
                <polygon class="cls-5" points="953.4 253.9 769.2 253.9 763.2 238.1 769.2 222.4 953.5 222.6 960.3 238.3 953.4 253.9"/>
                <g>
                  <polygon class="cls-3" points="882.1 147.2 861.7 158.4 841.3 147.2 841.3 115.1 882.1 115.1 882.1 147.2"/>
                  <g>
                    <path class="cls-12" d="M866.8,140.7c.9,1.5,1.7,3,2.6,4.5.2.4,0,.5-.3.7-2.2,1.5-4.7,2.2-7.4,2.2-6.4-.2-11.4-4.6-12.5-11-1.2-6.9,4-13.9,11-14.7,1.2-.1,2.5-.1,3.7,0,.4,0,.6.1.3.6-.7,1.5-1.4,2.9-2.1,4.4-.3.6-.7.4-1.1.5-3.1.4-5.6,2.7-6.3,5.7-.6,2.9.5,5.8,2.9,7.5s5.6,1.8,8.1.2c.3-.2.6-.4,1-.7h0Z"/>
                    <path class="cls-12" d="M861.5,138.8c1.1-1.8,2-3.5,3-5.2,0-.2.3-.3.6-.3h5.6c.3,0,.5.1.6.4.9,1.6,1.9,3.2,2.8,4.8,0,.2.2.4,0,.6-1,1.7-2,3.4-3,5.2-1-1.7-1.9-3.3-2.9-5-.3-.5-.5-.6-1-.6h-5.7,0Z"/>
                    <path class="cls-9" d="M868.7,131.5h-2.4c-.4,0-.5-.1-.5-.5,0-1.7.7-2.9,2.1-3.7.5-.3,1-.5,1.5-.8.3-.2.6-.6.4-1,0-.4-.5-.6-.9-.6-.7,0-1.4.2-1.7.8-.3.4-.4.3-.7,0-.8-.8-.8-1,0-1.7,1.1-.9,2.7-1.1,4-.3,1.3.8,1.6,2.5.6,3.6-.3.4-.7.6-1.1.9-.4.2-.8.4-1.2.7-.4.2-.9.5-.8,1,0,.2.7.1,1,.1h2.2c.7,0,.5.6.5,1s0,.7-.5.7h-2.4v-.2h0Z"/>
                  </g>
                </g>
                <g class="cls-8">
                  <g class="cls-8">
                    <path class="cls-11" d="M821.9,183.8v4.8h-6.5v19.7h-6v-19.7h-6.5v-4.8h19Z"/>
                    <path class="cls-11" d="M828.6,207.3c-1.5-.8-2.7-2-3.6-3.5-.9-1.5-1.3-3.3-1.3-5.3s.4-3.8,1.3-5.3,2.1-2.7,3.6-3.5,3.2-1.2,5.2-1.2,3.6.4,5.2,1.2,2.7,2,3.6,3.5,1.3,3.3,1.3,5.3-.4,3.8-1.3,5.3c-.9,1.5-2.1,2.7-3.7,3.5-1.5.8-3.3,1.2-5.2,1.2s-3.6-.4-5.1-1.2ZM836.7,202.1c.8-.8,1.2-2,1.2-3.6s-.4-2.7-1.2-3.6c-.8-.8-1.7-1.3-2.9-1.3s-2.1.4-2.9,1.2c-.8.8-1.1,2-1.1,3.6s.4,2.7,1.1,3.6c.8.8,1.7,1.3,2.8,1.3s2.1-.4,2.9-1.3h.1Z"/>
                    <path class="cls-11" d="M855.4,189.3c1-.6,2.2-.8,3.6-.8s3.1.4,4.3,1.2c1.3.8,2.3,2,3.1,3.5s1.1,3.3,1.1,5.3-.4,3.8-1.1,5.3-1.8,2.7-3.1,3.5-2.7,1.2-4.3,1.2-2.5-.3-3.6-.8-1.8-1.3-2.4-2.2v12h-6v-28.7h6v2.7c.6-.9,1.4-1.6,2.4-2.2ZM860.3,195c-.8-.8-1.8-1.3-3-1.3s-2.2.4-3,1.3-1.2,2-1.2,3.5.4,2.7,1.2,3.5,1.8,1.3,3,1.3,2.2-.4,3-1.3,1.3-2,1.3-3.5-.4-2.7-1.2-3.5h0Z"/>
                    <path class="cls-11" d="M895.4,188h-10.9v4.8c.5-.5,1.1-.9,1.9-1.3s1.7-.5,2.7-.5c1.7,0,3.2.4,4.3,1.2,1.1.8,2,1.8,2.5,3.1.5,1.3.8,2.6.8,4.1,0,2.7-.8,4.9-2.3,6.5s-3.7,2.4-6.5,2.4-3.5-.3-4.8-1c-1.4-.6-2.4-1.5-3.2-2.7s-1.1-2.4-1.2-3.9h5.8c0,.7.5,1.3,1,1.8s1.3.7,2.2.7,1.9-.3,2.4-1,.8-1.6.8-2.8-.3-2-.8-2.6c-.6-.6-1.4-.9-2.4-.9s-1.4.2-1.9.6-.8.9-1,1.5h-5.7v-15.1h16.3v5.2h0Z"/>
                    <path class="cls-11" d="M902.4,185.7c1.5-2.3,4-3.4,7.5-3.4s5.9,1.1,7.5,3.4,2.3,5.4,2.3,9.4-.8,7.2-2.3,9.5-4,3.4-7.5,3.4-5.9-1.1-7.5-3.4c-1.5-2.3-2.3-5.5-2.3-9.5s.8-7.1,2.3-9.4ZM913.1,189.7c-.5-1.3-1.6-1.9-3.2-1.9s-2.7.6-3.2,1.9-.8,3.1-.8,5.4,0,2.9.3,3.9c.2,1,.6,1.9,1.1,2.5.6.6,1.4,1,2.5,1s2-.3,2.5-1c.6-.6.9-1.5,1.1-2.5s.3-2.3.3-3.9c0-2.3-.3-4.1-.8-5.4h.2Z"/>
                  </g>
                </g>
                <g class="cls-8">
                  <g class="cls-8">
                    <path class="cls-11" d="M798,276.9v-7.4h2.6c.9,0,1.6.2,2,.5.5.3.7.8.7,1.5s0,.7-.3,1c-.2.3-.4.5-.8.6.4,0,.7.3.9.6.2.3.3.6.3,1.1s-.2,1.2-.7,1.6-1.1.6-1.9.6h-2.9.1ZM799.5,272.6h1.1c.8,0,1.2-.3,1.2-.9s0-.6-.3-.7c-.2-.1-.5-.2-.9-.2h-1.1v1.9h0ZM799.5,273.7v2h1.3c.4,0,.6,0,.8-.3.2-.2.3-.4.3-.7,0-.7-.4-1-1.1-1h-1.4.1Z"/>
                    <path class="cls-11" d="M809,273.7h-2.9v2h3.4v1.2h-5v-7.4h4.9v1.2h-3.4v1.8h2.9v1.2h0Z"/>
                    <path class="cls-11" d="M814.3,275c0-.3,0-.5-.3-.7s-.6-.3-1.1-.5-.9-.3-1.3-.5c-.8-.5-1.3-1.1-1.3-1.8s0-.8.3-1.1c.2-.3.5-.6,1-.7.4-.2.9-.3,1.4-.3s1,0,1.4.3c.4.2.7.5,1,.8s.3.7.3,1.2h-1.5c0-.3,0-.6-.3-.8-.2-.2-.5-.3-.9-.3s-.7,0-.9.2-.3.4-.3.6,0,.4.4.6c.2.2.6.3,1.1.5.9.3,1.5.6,1.9,1s.6.9.6,1.4-.2,1.1-.7,1.5-1.1.5-2,.5-1.1-.1-1.6-.3c-.5-.2-.8-.5-1.1-.9-.2-.4-.4-.8-.4-1.3h1.5c0,.8.5,1.2,1.5,1.2s.6,0,.8-.2c.2-.1.3-.4.3-.6l.2.2Z"/>
                    <path class="cls-11" d="M822.4,270.7h-2.3v6.2h-1.5v-6.2h-2.2v-1.2h6v1.2Z"/>
                    <path class="cls-11" d="M829.4,275c0-.3,0-.5-.3-.7s-.6-.3-1.1-.5-.9-.3-1.3-.5c-.8-.5-1.3-1.1-1.3-1.8s0-.8.3-1.1c.2-.3.5-.6,1-.7.4-.2.9-.3,1.4-.3s1,0,1.4.3c.4.2.7.5,1,.8s.3.7.3,1.2h-1.5c0-.3,0-.6-.3-.8-.2-.2-.5-.3-.9-.3s-.7,0-.9.2-.3.4-.3.6,0,.4.4.6c.2.2.6.3,1.1.5.9.3,1.5.6,1.9,1s.6.9.6,1.4-.2,1.1-.7,1.5-1.1.5-2,.5-1.1-.1-1.6-.3c-.5-.2-.8-.5-1.1-.9-.2-.4-.4-.8-.4-1.3h1.5c0,.8.5,1.2,1.5,1.2s.6,0,.8-.2c.2-.1.3-.4.3-.6l.2.2Z"/>
                    <path class="cls-11" d="M838,273.4c0,.7,0,1.4-.4,1.9-.3.5-.6,1-1.1,1.3s-1,.4-1.6.4-1.2-.1-1.6-.4c-.5-.3-.9-.7-1.1-1.3-.3-.5-.4-1.2-.4-1.9v-.4c0-.7,0-1.4.4-1.9.3-.6.6-1,1.1-1.3s1-.4,1.6-.4,1.2.1,1.6.4c.5.3.8.7,1.1,1.3.3.6.4,1.2.4,1.9v.3h0ZM836.5,273c0-.8,0-1.4-.4-1.8-.3-.4-.7-.6-1.2-.6s-.9.2-1.2.6-.4,1-.4,1.8v.4c0,.8,0,1.3.4,1.8.3.4.7.6,1.2.6s.9-.2,1.2-.6.4-1,.4-1.8v-.4Z"/>
                    <path class="cls-11" d="M843.6,273.9h-2.9v3h-1.5v-7.4h4.8v1.2h-3.3v1.9h2.9v1.2h0Z"/>
                    <path class="cls-11" d="M850.5,270.7h-2.3v6.2h-1.5v-6.2h-2.2v-1.2h6v1.2Z"/>
                    <path class="cls-11" d="M857.2,274.8l1-5.3h1.5l-1.6,7.4h-1.5l-1.2-4.9-1.2,4.9h-1.5l-1.6-7.4h1.5l1,5.3,1.2-5.3h1.3l1.2,5.3h-.1Z"/>
                    <path class="cls-11" d="M864.5,275.4h-2.7l-.5,1.5h-1.6l2.8-7.4h1.4l2.8,7.4h-1.6l-.5-1.5h-.1ZM862.2,274.1h1.8l-.9-2.8-.9,2.8h0Z"/>
                    <path class="cls-11" d="M870.1,274.2h-1.2v2.7h-1.5v-7.4h2.7c.9,0,1.5.2,2,.6s.7.9.7,1.7,0,.9-.3,1.3c-.2.3-.5.6-1,.8l1.6,3h-1.6l-1.4-2.7ZM868.8,273h1.2c.4,0,.7,0,.9-.3.2-.2.3-.5.3-.8s0-.6-.3-.8c-.2-.2-.5-.3-.9-.3h-1.2v2.2h0Z"/>
                    <path class="cls-11" d="M878.4,273.7h-2.9v2h3.4v1.2h-5v-7.4h4.9v1.2h-3.4v1.8h2.9v1.2h0Z"/>
                    <path class="cls-11" d="M886.6,275.4h-2.7l-.5,1.5h-1.6l2.8-7.4h1.4l2.8,7.4h-1.6l-.5-1.5h-.1ZM884.3,274.1h1.8l-.9-2.8-.9,2.8h0Z"/>
                    <path class="cls-11" d="M895,274.8l1-5.3h1.5l-1.6,7.4h-1.5l-1.2-4.9-1.2,4.9h-1.5l-1.6-7.4h1.5l1,5.3,1.2-5.3h1.3l1.2,5.3h-.1Z"/>
                    <path class="cls-11" d="M902.2,275.4h-2.7l-.5,1.5h-1.6l2.8-7.4h1.4l2.8,7.4h-1.6l-.5-1.5h-.1ZM900,274.1h1.8l-.9-2.8-.9,2.8h0Z"/>
                    <path class="cls-11" d="M907.8,274.2h-1.2v2.7h-1.5v-7.4h2.7c.9,0,1.5.2,2,.6s.7.9.7,1.7,0,.9-.3,1.3c-.2.3-.5.6-1,.8l1.6,3h-1.6l-1.4-2.7ZM906.6,273h1.2c.4,0,.7,0,.9-.3.2-.2.3-.5.3-.8s0-.6-.3-.8c-.2-.2-.5-.3-.9-.3h-1.2v2.2h0Z"/>
                    <path class="cls-11" d="M911.7,276.9v-7.4h2.3c.6,0,1.2.1,1.7.4s.9.7,1.2,1.2.4,1.2.4,1.8v.3c0,.7,0,1.3-.4,1.8-.3.5-.7,1-1.2,1.2-.5.3-1.1.4-1.7.4h-2.3v.3ZM913.2,270.7v4.9h.7c.6,0,1.1-.2,1.4-.6.3-.4.5-.9.5-1.7v-.4c0-.8-.2-1.3-.5-1.7s-.8-.6-1.4-.6h-.8,0Z"/>
                    <path class="cls-11" d="M922.3,275c0-.3,0-.5-.3-.7s-.6-.3-1.1-.5-.9-.3-1.3-.5c-.8-.5-1.3-1.1-1.3-1.8s0-.8.3-1.1c.2-.3.5-.6,1-.7.4-.2.9-.3,1.4-.3s1,0,1.4.3c.4.2.7.5,1,.8s.3.7.3,1.2h-1.5c0-.3,0-.6-.3-.8-.2-.2-.5-.3-.9-.3s-.7,0-.9.2-.3.4-.3.6,0,.4.4.6c.2.2.6.3,1.1.5.9.3,1.5.6,1.9,1s.6.9.6,1.4-.2,1.1-.7,1.5-1.1.5-2,.5-1.1-.1-1.6-.3c-.5-.2-.8-.5-1.1-.9-.2-.4-.4-.8-.4-1.3h1.5c0,.8.5,1.2,1.5,1.2s.6,0,.8-.2c.2-.1.3-.4.3-.6l.2.2Z"/>
                  </g>
                </g>
                <g class="cls-8">
                  <g class="cls-8">
                    <path class="cls-11" d="M848.7,302.1h-10.1v-2l4.8-5.1c.7-.7,1.1-1.3,1.5-1.9.3-.5.5-1,.5-1.5s-.2-1.2-.5-1.5-.8-.6-1.4-.6-1.2.2-1.6.7c-.4.5-.6,1.1-.6,1.8h-2.9c0-.9.2-1.7.6-2.5.4-.7,1-1.3,1.8-1.8.8-.4,1.7-.6,2.7-.6,1.5,0,2.7.4,3.5,1.1s1.3,1.8,1.3,3.1-.2,1.5-.6,2.2c-.4.8-1,1.6-2,2.7l-3.4,3.5h6.4v2.4h0Z"/>
                    <path class="cls-11" d="M860.5,296c0,2-.4,3.6-1.3,4.7-.8,1.1-2.1,1.6-3.7,1.6s-2.8-.5-3.7-1.6-1.3-2.6-1.3-4.6v-2.7c0-2.1.4-3.6,1.3-4.7.9-1.1,2.1-1.6,3.7-1.6s2.8.5,3.7,1.6,1.3,2.6,1.3,4.6v2.7ZM857.6,293c0-1.2-.2-2.1-.5-2.7s-.9-.8-1.6-.8-1.2.3-1.5.8-.5,1.4-.5,2.5v3.6c0,1.2.2,2.1.5,2.7.3.6.9.9,1.6.9s1.2-.3,1.6-.8.5-1.4.5-2.6v-3.5h0Z"/>
                    <path class="cls-11" d="M872.6,302.1h-10.1v-2l4.8-5.1c.7-.7,1.1-1.3,1.5-1.9.3-.5.5-1,.5-1.5s-.2-1.2-.5-1.5-.8-.6-1.4-.6-1.2.2-1.6.7c-.4.5-.6,1.1-.6,1.8h-2.9c0-.9.2-1.7.6-2.5.4-.7,1-1.3,1.8-1.8.8-.4,1.7-.6,2.7-.6,1.5,0,2.7.4,3.5,1.1s1.3,1.8,1.3,3.1-.2,1.5-.6,2.2c-.4.8-1,1.6-2,2.7l-3.4,3.5h6.4v2.4h0Z"/>
                    <path class="cls-11" d="M883.1,296.5h1.7v2.4h-1.7v3.2h-2.9v-3.2h-6.1v-1.8c0,0,6-9.7,6-9.7h3v9.2h0ZM876.9,296.5h3.3v-5.2l-.2.3-3.1,4.9Z"/>
                  </g>
                </g>
                <g class="cls-8">
                  <g class="cls-8">
                    <path class="cls-2" d="M788.3,234c.4-.8,1-1.4,1.8-1.8s1.6-.6,2.6-.6,2.2.3,3,.9,1.4,1.5,1.7,2.5h-2.7c-.2-.4-.5-.7-.8-.9-.4-.2-.8-.3-1.2-.3-.7,0-1.3.3-1.8.8s-.7,1.2-.7,2.1.2,1.6.7,2.1,1.1.8,1.8.8.9-.1,1.2-.3c.4-.2.6-.5.8-.9h2.7c-.3,1.1-.8,1.9-1.7,2.5-.8.6-1.8.9-3,.9s-1.8-.2-2.6-.6-1.3-1-1.8-1.8c-.4-.8-.6-1.6-.6-2.6s.2-1.8.6-2.6v-.2Z"/>
                    <path class="cls-2" d="M800.3,241.2c-.6-.3-1.1-.8-1.5-1.4s-.5-1.3-.5-2.1.2-1.5.5-2.1c.4-.6.8-1.1,1.5-1.4.6-.3,1.3-.5,2.1-.5s1.5.2,2.1.5,1.1.8,1.5,1.4.5,1.3.5,2.1-.2,1.5-.5,2.1c-.4.6-.9,1.1-1.5,1.4s-1.3.5-2.1.5-1.5-.2-2.1-.5ZM803.6,239.1c.3-.3.5-.8.5-1.5s-.2-1.1-.5-1.5c-.3-.3-.7-.5-1.2-.5s-.9.2-1.2.5-.5.8-.5,1.5.2,1.1.5,1.5c.3.3.7.5,1.1.5s.9-.2,1.2-.5h.1Z"/>
                    <path class="cls-2" d="M820.2,234.5c.6.6.9,1.4.9,2.5v4.6h-2.4v-4.3c0-.5,0-.9-.4-1.2s-.6-.4-1.1-.4-.8.1-1.1.4-.4.7-.4,1.2v4.3h-2.4v-4.3c0-.5,0-.9-.4-1.2-.3-.3-.6-.4-1.1-.4s-.8.1-1.1.4-.4.7-.4,1.2v4.3h-2.4v-7.9h2.4v1c.2-.3.6-.6,1-.8s.8-.3,1.3-.3,1.1.1,1.6.4.8.6,1.1,1.1c.3-.4.6-.8,1.1-1.1.5-.3,1-.4,1.5-.4,1,0,1.8.3,2.3.9h0Z"/>
                    <path class="cls-2" d="M835.1,234.5c.6.6.9,1.4.9,2.5v4.6h-2.4v-4.3c0-.5,0-.9-.4-1.2s-.6-.4-1.1-.4-.8.1-1.1.4-.4.7-.4,1.2v4.3h-2.4v-4.3c0-.5,0-.9-.4-1.2-.3-.3-.6-.4-1.1-.4s-.8.1-1.1.4-.4.7-.4,1.2v4.3h-2.4v-7.9h2.4v1c.2-.3.6-.6,1-.8s.8-.3,1.3-.3,1.1.1,1.6.4.8.6,1.1,1.1c.3-.4.6-.8,1.1-1.1.5-.3,1-.4,1.5-.4,1,0,1.8.3,2.3.9h0Z"/>
                    <path class="cls-2" d="M845,238.2h-5.5c0,.5.2.9.5,1.1.3.3.6.4,1,.4.6,0,1-.3,1.3-.8h2.6c0,.5-.4,1-.7,1.4s-.8.7-1.3,1c-.5.2-1.1.4-1.7.4s-1.5-.2-2.1-.5-1.1-.8-1.4-1.4c-.3-.6-.5-1.3-.5-2.1s.2-1.5.5-2.1.8-1.1,1.4-1.4,1.3-.5,2.1-.5,1.4.2,2,.5,1.1.8,1.4,1.4c.3.6.5,1.3.5,2.1s0,.5,0,.7v-.2ZM842.6,236.9c0-.4,0-.7-.4-1-.3-.2-.6-.4-1.1-.4s-.7.1-1,.4-.4.6-.5,1h3Z"/>
                    <path class="cls-2" d="M849.8,234c.4-.2.9-.4,1.4-.4v2.6h-.7c-.6,0-1.1.1-1.4.4-.3.3-.5.7-.5,1.4v3.7h-2.4v-7.9h2.4v1.3c.3-.4.6-.8,1.1-1h.1Z"/>
                    <path class="cls-2" d="M852.4,235.5c.3-.6.8-1.1,1.4-1.4.6-.3,1.3-.5,2.1-.5s1.8.3,2.5.8,1.1,1.2,1.3,2.2h-2.6c-.2-.6-.6-.9-1.3-.9s-.8.2-1.1.5-.4.8-.4,1.5,0,1.1.4,1.5c.3.3.6.5,1.1.5s1-.3,1.3-.9h2.6c-.2.9-.6,1.6-1.3,2.2-.7.5-1.5.8-2.5.8s-1.5-.2-2.1-.5-1.1-.8-1.4-1.4c-.3-.6-.5-1.3-.5-2.1s.2-1.5.5-2.1v-.2Z"/>
                    <path class="cls-2" d="M868.3,238.2h-5.5c0,.5.2.9.5,1.1.3.3.6.4,1,.4.6,0,1-.3,1.3-.8h2.6c0,.5-.4,1-.7,1.4s-.8.7-1.3,1c-.5.2-1.1.4-1.7.4s-1.5-.2-2.1-.5-1.1-.8-1.4-1.4c-.3-.6-.5-1.3-.5-2.1s.2-1.5.5-2.1.8-1.1,1.4-1.4,1.3-.5,2.1-.5,1.4.2,2,.5,1.1.8,1.4,1.4c.3.6.5,1.3.5,2.1s0,.5,0,.7v-.2ZM865.9,236.9c0-.4,0-.7-.4-1-.3-.2-.6-.4-1.1-.4s-.7.1-1,.4-.4.6-.5,1h3Z"/>
                    <path class="cls-2" d="M879.7,236.5c-.3.5-.7.9-1.2,1.1s-1.2.4-2,.4h-1.5v3.6h-2.4v-9.9h3.9c.8,0,1.5.1,2,.4s1,.6,1.2,1.1.4,1,.4,1.6,0,1.1-.4,1.6h0ZM877.3,235.8c.2-.2.3-.5.3-.9s0-.7-.3-.9-.6-.3-1-.3h-1.3v2.5h1.3c.5,0,.8-.1,1-.3h0Z"/>
                    <path class="cls-2" d="M884.9,234c.4-.2.9-.4,1.4-.4v2.6h-.7c-.6,0-1.1.1-1.4.4-.3.3-.5.7-.5,1.4v3.7h-2.4v-7.9h2.4v1.3c.3-.4.6-.8,1.1-1h.1Z"/>
                    <path class="cls-2" d="M888.9,241.2c-.6-.3-1.1-.8-1.5-1.4s-.5-1.3-.5-2.1.2-1.5.5-2.1c.4-.6.8-1.1,1.5-1.4.6-.3,1.3-.5,2.1-.5s1.5.2,2.1.5,1.1.8,1.5,1.4.5,1.3.5,2.1-.2,1.5-.5,2.1c-.4.6-.9,1.1-1.5,1.4s-1.3.5-2.1.5-1.5-.2-2.1-.5ZM892.2,239.1c.3-.3.5-.8.5-1.5s-.2-1.1-.5-1.5c-.3-.3-.7-.5-1.2-.5s-.9.2-1.2.5-.5.8-.5,1.5.2,1.1.5,1.5c.3.3.7.5,1.1.5s.9-.2,1.2-.5h.1Z"/>
                    <path class="cls-2" d="M896.4,235.5c.3-.6.7-1.1,1.2-1.4s1.1-.5,1.8-.5,1,.1,1.4.3.8.5,1,.9v-3.7h2.4v10.4h-2.4v-1.1c-.2.4-.5.7-1,.9-.4.2-.9.3-1.5.3s-1.2-.2-1.8-.5c-.5-.3-.9-.8-1.2-1.4s-.5-1.3-.5-2.1.2-1.5.5-2.1h0ZM901.3,236.2c-.3-.3-.7-.5-1.2-.5s-.9.2-1.2.5-.5.8-.5,1.4.2,1.1.5,1.4c.3.4.7.5,1.2.5s.9-.2,1.2-.5.5-.8.5-1.4-.2-1.1-.5-1.4Z"/>
                    <path class="cls-2" d="M913.7,233.7v7.9h-2.4v-1.1c-.2.3-.6.6-1,.8-.4.2-.9.3-1.4.3s-1.1-.1-1.6-.4-.8-.7-1.1-1.2-.4-1.1-.4-1.8v-4.6h2.4v4.3c0,.5,0,.9.4,1.2.3.3.6.4,1.1.4s.8-.1,1.1-.4.4-.7.4-1.2v-4.3h2.5Z"/>
                    <path class="cls-2" d="M915.5,235.5c.3-.6.8-1.1,1.4-1.4.6-.3,1.3-.5,2.1-.5s1.8.3,2.5.8,1.1,1.2,1.3,2.2h-2.6c-.2-.6-.6-.9-1.3-.9s-.8.2-1.1.5-.4.8-.4,1.5,0,1.1.4,1.5c.3.3.6.5,1.1.5s1-.3,1.3-.9h2.6c-.2.9-.6,1.6-1.3,2.2-.7.5-1.5.8-2.5.8s-1.5-.2-2.1-.5-1.1-.8-1.4-1.4c-.3-.6-.5-1.3-.5-2.1s.2-1.5.5-2.1v-.2Z"/>
                    <path class="cls-2" d="M928.4,239.6v2h-1.2c-.9,0-1.6-.2-2-.6-.5-.4-.7-1.1-.7-2.1v-3.1h-1v-2h1v-1.9h2.4v1.9h1.6v2h-1.6v3.2c0,.2,0,.4.2.5,0,.1.3.2.6.2h.9-.2Z"/>
                    <path class="cls-2" d="M931.1,241.4c-.5-.2-1-.6-1.3-1s-.5-.9-.5-1.4h2.4c0,.3.2.5.4.7s.5.3.8.3.5,0,.7-.2c.2-.1.2-.3.2-.5s0-.4-.4-.5c-.2-.1-.6-.2-1.1-.4-.6-.1-1-.3-1.4-.4s-.7-.4-1-.7c-.3-.3-.4-.7-.4-1.3s0-.9.4-1.2c.2-.4.6-.7,1.1-.9s1.1-.3,1.7-.3c1,0,1.8.2,2.3.7.6.5.9,1.1,1,1.9h-2.2c0-.3-.2-.5-.4-.6s-.5-.2-.8-.2-.5,0-.6.2c-.2.1-.2.3-.2.4s0,.4.4.5c.2.1.6.2,1.1.3.6.2,1.1.3,1.4.4.4.1.7.4,1,.7.3.3.4.8.4,1.3s0,.9-.4,1.2c-.3.4-.6.6-1.1.9-.5.2-1,.3-1.7.3s-1.3-.1-1.8-.4v.2Z"/>
                  </g>
                </g>
              </g>
              <g>
                <g>
                  <polygon class="cls-2" points="430.9 179.2 343.2 224.1 255.5 179.2 255.5 1.6 430.9 1.6 430.9 179.2"/>
                  <path class="cls-4" d="M343.2,225.9l-.7-.4-88.5-45.3V0h178.5v180.2l-.9.4-88.4,45.2h0ZM257.1,178.3l86.1,44,86.1-44V3.3h-172.2v175Z"/>
                </g>
                <polygon class="cls-13" points="257.1 178.3 429.3 3.2 429.3 178.3 343.2 222.3 257.1 178.3"/>
                <polygon class="cls-5" points="434.9 142 250.7 142 244.8 126.2 250.7 110.5 434.9 110.5 441.7 126.2 434.9 142"/>
                <g>
                  <polygon class="cls-3" points="363.7 35.3 343.2 46.5 322.8 35.3 322.8 3.2 363.7 3.2 363.7 35.3"/>
                  <g>
                    <path class="cls-12" d="M348.4,28.8c.9,1.5,1.7,3,2.6,4.5.2.4,0,.5-.3.7-2.2,1.5-4.7,2.2-7.4,2.2-6.4-.2-11.4-4.6-12.5-11-1.2-6.9,4-13.9,11-14.7,1.2-.1,2.5-.1,3.7,0,.4,0,.6.1.3.6-.7,1.5-1.4,2.9-2.1,4.4-.3.6-.7.4-1.1.5-3.1.4-5.6,2.7-6.3,5.7-.6,2.9.5,5.8,2.9,7.5s5.6,1.8,8.1.2c.3-.2.6-.4,1-.7h0Z"/>
                    <path class="cls-12" d="M343,26.9c1.1-1.8,2-3.5,3-5.2.1-.2.3-.3.6-.3h5.6c.3,0,.5.1.6.4.9,1.6,1.9,3.2,2.8,4.8.1.2.2.4,0,.6-1,1.7-2,3.4-3,5.2-1-1.7-1.9-3.3-2.9-5-.3-.5-.5-.6-1-.6h-5.7Z"/>
                    <path class="cls-9" d="M350.2,19.6h-2.4c-.4,0-.5-.1-.5-.5,0-1.7.7-2.9,2.1-3.7.5-.3,1-.5,1.5-.8.3-.2.6-.6.4-1-.1-.4-.5-.6-.9-.6-.7,0-1.4.2-1.7.8-.3.4-.4.3-.7,0-.8-.8-.8-1,0-1.7,1.1-.9,2.7-1.1,4-.3s1.6,2.5.6,3.6c-.3.4-.7.6-1.1.9-.4.2-.8.4-1.2.7-.4.2-.9.5-.8,1,0,.2.7.1,1,.1h2.2c.7,0,.5.6.5,1s.1.7-.5.7h-2.4v-.2h-.1Z"/>
                  </g>
                </g>
                <g class="cls-8">
                  <g class="cls-8">
                    <path class="cls-11" d="M303.4,71.9v4.8h-6.5v19.7h-6v-19.7h-6.5v-4.8h19Z"/>
                    <path class="cls-11" d="M310.1,95.4c-1.5-.8-2.7-2-3.6-3.5s-1.3-3.3-1.3-5.3.4-3.8,1.3-5.3,2.1-2.7,3.6-3.5,3.2-1.2,5.2-1.2,3.6.4,5.2,1.2,2.7,2,3.6,3.5,1.3,3.3,1.3,5.3-.4,3.8-1.3,5.3-2.1,2.7-3.7,3.5c-1.5.8-3.3,1.2-5.2,1.2s-3.6-.4-5.1-1.2ZM318.2,90.2c.8-.8,1.2-2,1.2-3.6s-.4-2.7-1.2-3.6c-.8-.8-1.7-1.3-2.9-1.3s-2.1.4-2.9,1.2c-.8.8-1.1,2-1.1,3.6s.4,2.7,1.1,3.6c.8.8,1.7,1.3,2.8,1.3s2.1-.4,2.9-1.3h.1Z"/>
                    <path class="cls-11" d="M336.9,77.4c1-.6,2.2-.8,3.6-.8s3.1.4,4.3,1.2,2.3,2,3.1,3.5c.8,1.5,1.1,3.3,1.1,5.3s-.4,3.8-1.1,5.3c-.8,1.5-1.8,2.7-3.1,3.5-1.3.8-2.7,1.2-4.3,1.2s-2.5-.3-3.6-.8-1.8-1.3-2.4-2.2v12h-6v-28.7h6v2.7c.6-.9,1.4-1.6,2.4-2.2ZM341.8,83.1c-.8-.8-1.8-1.3-3-1.3s-2.2.4-3,1.3-1.2,2-1.2,3.5.4,2.7,1.2,3.5c.8.9,1.8,1.3,3,1.3s2.2-.4,3-1.3,1.3-2,1.3-3.5-.4-2.7-1.2-3.5h0Z"/>
                    <path class="cls-11" d="M376.9,76.1h-10.9v4.8c.5-.5,1.1-.9,1.9-1.3.8-.3,1.7-.5,2.7-.5,1.7,0,3.2.4,4.3,1.2,1.1.8,2,1.8,2.5,3.1s.8,2.6.8,4.1c0,2.7-.8,4.9-2.3,6.5s-3.7,2.4-6.5,2.4-3.5-.3-4.8-1c-1.4-.6-2.4-1.5-3.2-2.7-.7-1.1-1.1-2.4-1.2-3.9h5.8c.1.7.5,1.3,1,1.8s1.3.7,2.2.7,1.9-.3,2.4-1,.8-1.6.8-2.8-.3-2-.8-2.6c-.6-.6-1.4-.9-2.4-.9s-1.4.2-1.9.6-.8.9-1,1.5h-5.7v-15.1h16.3v5.2h0Z"/>
                    <path class="cls-11" d="M383.9,73.8c1.5-2.3,4-3.4,7.5-3.4s5.9,1.1,7.5,3.4c1.5,2.3,2.3,5.4,2.3,9.4s-.8,7.2-2.3,9.5-4,3.4-7.5,3.4-5.9-1.1-7.5-3.4c-1.5-2.3-2.3-5.5-2.3-9.5s.8-7.1,2.3-9.4ZM394.6,77.8c-.5-1.3-1.6-1.9-3.2-1.9s-2.7.6-3.2,1.9-.8,3.1-.8,5.4,0,2.9.3,3.9c.2,1,.6,1.9,1.1,2.5.6.6,1.4,1,2.5,1s2-.3,2.5-1c.6-.6.9-1.5,1.1-2.5s.3-2.3.3-3.9c0-2.3-.3-4.1-.8-5.4h.2Z"/>
                  </g>
                </g>
                <g class="cls-8">
                  <g class="cls-8">
                    <path class="cls-11" d="M279.6,165v-7.4h2.6c.9,0,1.6.2,2,.5.5.3.7.8.7,1.5s0,.7-.3,1c-.2.3-.4.5-.8.6.4,0,.7.3.9.6.2.3.3.6.3,1.1s-.2,1.2-.7,1.6-1.1.6-1.9.6h-2.9,0ZM281.1,160.7h1.1c.8,0,1.2-.3,1.2-.9s0-.6-.3-.7c-.2-.1-.5-.2-.9-.2h-1.1v1.9h0ZM281.1,161.8v2h1.3c.4,0,.6,0,.8-.3.2-.2.3-.4.3-.7,0-.7-.4-1-1.1-1h-1.4.1Z"/>
                    <path class="cls-11" d="M290.6,161.8h-2.9v2h3.4v1.2h-5v-7.4h4.9v1.2h-3.4v1.8h2.9v1.2h.1Z"/>
                    <path class="cls-11" d="M295.9,163.1c0-.3-.1-.5-.3-.7s-.6-.3-1.1-.5-.9-.3-1.3-.5c-.8-.5-1.3-1.1-1.3-1.8s.1-.8.3-1.1c.2-.3.5-.6,1-.7.4-.2.9-.3,1.4-.3s1,0,1.4.3c.4.2.7.5,1,.8s.3.7.3,1.2h-1.5c0-.3-.1-.6-.3-.8s-.5-.3-.9-.3-.7,0-.9.2c-.2.2-.3.4-.3.6s.1.4.4.6c.2.2.6.3,1.1.5.9.3,1.5.6,1.9,1s.6.9.6,1.4-.2,1.1-.7,1.5-1.1.5-2,.5-1.1-.1-1.6-.3-.8-.5-1.1-.9c-.2-.4-.4-.8-.4-1.3h1.5c0,.8.5,1.2,1.5,1.2s.6,0,.8-.2c.2-.1.3-.4.3-.6l.2.2Z"/>
                    <path class="cls-11" d="M304,158.8h-2.3v6.2h-1.5v-6.2h-2.2v-1.2h6v1.2Z"/>
                    <path class="cls-11" d="M311,163.1c0-.3-.1-.5-.3-.7s-.6-.3-1.1-.5-.9-.3-1.3-.5c-.8-.5-1.3-1.1-1.3-1.8s.1-.8.3-1.1c.2-.3.5-.6,1-.7.4-.2.9-.3,1.4-.3s1,0,1.4.3c.4.2.7.5,1,.8s.3.7.3,1.2h-1.5c0-.3-.1-.6-.3-.8s-.5-.3-.9-.3-.7,0-.9.2c-.2.2-.3.4-.3.6s.1.4.4.6c.2.2.6.3,1.1.5.9.3,1.5.6,1.9,1s.6.9.6,1.4-.2,1.1-.7,1.5-1.1.5-2,.5-1.1-.1-1.6-.3-.8-.5-1.1-.9c-.2-.4-.4-.8-.4-1.3h1.5c0,.8.5,1.2,1.5,1.2s.6,0,.8-.2c.2-.1.3-.4.3-.6l.2.2Z"/>
                    <path class="cls-11" d="M319.6,161.5c0,.7-.1,1.4-.4,1.9s-.6,1-1.1,1.3-1,.4-1.6.4-1.2-.1-1.6-.4c-.5-.3-.9-.7-1.1-1.3-.3-.5-.4-1.2-.4-1.9v-.4c0-.7.1-1.4.4-1.9.3-.6.6-1,1.1-1.3s1-.4,1.6-.4,1.2.1,1.6.4c.5.3.8.7,1.1,1.3.3.6.4,1.2.4,1.9v.3h0ZM318.1,161.1c0-.8-.1-1.4-.4-1.8s-.7-.6-1.2-.6-.9.2-1.2.6c-.3.4-.4,1-.4,1.8v.4c0,.8.1,1.3.4,1.8.3.4.7.6,1.2.6s.9-.2,1.2-.6c.3-.4.4-1,.4-1.8v-.4Z"/>
                    <path class="cls-11" d="M325.2,162h-2.9v3h-1.5v-7.4h4.8v1.2h-3.3v1.9h2.9v1.2h0Z"/>
                    <path class="cls-11" d="M332.1,158.8h-2.3v6.2h-1.5v-6.2h-2.2v-1.2h6v1.2Z"/>
                    <path class="cls-11" d="M338.8,162.9l1-5.3h1.5l-1.6,7.4h-1.5l-1.2-4.9-1.2,4.9h-1.5l-1.6-7.4h1.5l1,5.3,1.2-5.3h1.3l1.2,5.3h0Z"/>
                    <path class="cls-11" d="M346.1,163.5h-2.7l-.5,1.5h-1.6l2.8-7.4h1.4l2.8,7.4h-1.6l-.5-1.5h0ZM343.8,162.2h1.8l-.9-2.8-.9,2.8Z"/>
                    <path class="cls-11" d="M351.7,162.3h-1.2v2.7h-1.5v-7.4h2.7c.9,0,1.5.2,2,.6s.7.9.7,1.7-.1.9-.3,1.3-.5.6-1,.8l1.6,3h-1.6l-1.4-2.7h0ZM350.4,161.1h1.2c.4,0,.7,0,.9-.3.2-.2.3-.5.3-.8s0-.6-.3-.8c-.2-.2-.5-.3-.9-.3h-1.2v2.2h0Z"/>
                    <path class="cls-11" d="M360,161.8h-2.9v2h3.4v1.2h-5v-7.4h4.9v1.2h-3.4v1.8h2.9v1.2h.1Z"/>
                    <path class="cls-11" d="M368.2,163.5h-2.7l-.5,1.5h-1.6l2.8-7.4h1.4l2.8,7.4h-1.6l-.5-1.5h0ZM365.9,162.2h1.8l-.9-2.8-.9,2.8Z"/>
                    <path class="cls-11" d="M376.6,162.9l1-5.3h1.5l-1.6,7.4h-1.5l-1.2-4.9-1.2,4.9h-1.5l-1.6-7.4h1.5l1,5.3,1.2-5.3h1.3l1.2,5.3h0Z"/>
                    <path class="cls-11" d="M383.8,163.5h-2.7l-.5,1.5h-1.6l2.8-7.4h1.4l2.8,7.4h-1.6l-.5-1.5h0ZM381.6,162.2h1.8l-.9-2.8-.9,2.8Z"/>
                    <path class="cls-11" d="M389.4,162.3h-1.2v2.7h-1.5v-7.4h2.7c.9,0,1.5.2,2,.6s.7.9.7,1.7-.1.9-.3,1.3-.5.6-1,.8l1.6,3h-1.6l-1.4-2.7h0ZM388.2,161.1h1.2c.4,0,.7,0,.9-.3.2-.2.3-.5.3-.8s0-.6-.3-.8c-.2-.2-.5-.3-.9-.3h-1.2v2.2h0Z"/>
                    <path class="cls-11" d="M393.3,165v-7.4h2.3c.6,0,1.2.1,1.7.4s.9.7,1.2,1.2.4,1.2.4,1.8v.3c0,.7-.1,1.3-.4,1.8s-.7,1-1.2,1.2c-.5.3-1.1.4-1.7.4h-2.3v.3ZM394.8,158.8v4.9h.7c.6,0,1.1-.2,1.4-.6s.5-.9.5-1.7v-.4c0-.8-.2-1.3-.5-1.7s-.8-.6-1.4-.6h-.8,0Z"/>
                    <path class="cls-11" d="M403.9,163.1c0-.3-.1-.5-.3-.7s-.6-.3-1.1-.5-.9-.3-1.3-.5c-.8-.5-1.3-1.1-1.3-1.8s.1-.8.3-1.1c.2-.3.5-.6,1-.7.4-.2.9-.3,1.4-.3s1,0,1.4.3c.4.2.7.5,1,.8s.3.7.3,1.2h-1.5c0-.3-.1-.6-.3-.8s-.5-.3-.9-.3-.7,0-.9.2c-.2.2-.3.4-.3.6s.1.4.4.6c.2.2.6.3,1.1.5.9.3,1.5.6,1.9,1s.6.9.6,1.4-.2,1.1-.7,1.5-1.1.5-2,.5-1.1-.1-1.6-.3-.8-.5-1.1-.9c-.2-.4-.4-.8-.4-1.3h1.5c0,.8.5,1.2,1.5,1.2s.6,0,.8-.2c.2-.1.3-.4.3-.6l.2.2Z"/>
                  </g>
                </g>
                <g class="cls-8">
                  <g class="cls-8">
                    <path class="cls-11" d="M330.2,190.2h-10.1v-2l4.8-5.1c.7-.7,1.1-1.3,1.5-1.9s.5-1,.5-1.5-.2-1.2-.5-1.5c-.3-.4-.8-.6-1.4-.6s-1.2.2-1.6.7-.6,1.1-.6,1.8h-2.9c0-.9.2-1.7.6-2.5.4-.7,1-1.3,1.8-1.8.8-.4,1.7-.6,2.7-.6,1.5,0,2.7.4,3.5,1.1s1.3,1.8,1.3,3.1-.2,1.5-.6,2.2c-.4.8-1,1.6-1.9,2.7l-3.4,3.5h6.4v2.4h0Z"/>
                    <path class="cls-11" d="M342,184.1c0,2-.4,3.6-1.3,4.7s-2.1,1.6-3.7,1.6-2.8-.5-3.7-1.6c-.9-1.1-1.3-2.6-1.3-4.6v-2.7c0-2.1.4-3.6,1.3-4.7s2.1-1.6,3.7-1.6,2.8.5,3.7,1.6,1.3,2.6,1.3,4.6v2.7ZM339.1,181.1c0-1.2-.2-2.1-.5-2.7s-.9-.8-1.6-.8-1.2.3-1.5.8-.5,1.4-.5,2.5v3.6c0,1.2.2,2.1.5,2.7s.9.9,1.6.9,1.2-.3,1.6-.8c.3-.6.5-1.4.5-2.6v-3.5h-.1Z"/>
                    <path class="cls-11" d="M354.1,190.2h-10.1v-2l4.8-5.1c.7-.7,1.1-1.3,1.5-1.9s.5-1,.5-1.5-.2-1.2-.5-1.5c-.3-.4-.8-.6-1.4-.6s-1.2.2-1.6.7-.6,1.1-.6,1.8h-2.9c0-.9.2-1.7.6-2.5.4-.7,1-1.3,1.8-1.8.8-.4,1.7-.6,2.7-.6,1.5,0,2.7.4,3.5,1.1s1.3,1.8,1.3,3.1-.2,1.5-.6,2.2c-.4.8-1,1.6-1.9,2.7l-3.4,3.5h6.4v2.4h0Z"/>
                    <path class="cls-11" d="M364.6,184.6h1.7v2.4h-1.7v3.2h-2.9v-3.2h-6.1v-1.8c-.1,0,6-9.7,6-9.7h3v9.2h0ZM358.4,184.6h3.3v-5.2l-.2.3-3.1,4.9h0Z"/>
                  </g>
                </g>
                <g class="cls-8">
                  <g class="cls-8">
                    <path class="cls-2" d="M279.5,128.7c-.6-.2-1-.6-1.4-1-.3-.5-.5-1-.5-1.7h2.6c0,.4.2.6.4.8s.5.3.8.3.6,0,.8-.2c.2-.2.3-.4.3-.7s0-.4-.2-.6-.4-.3-.6-.4-.6-.2-1-.4c-.6-.2-1.2-.4-1.6-.6s-.8-.5-1-.9c-.3-.4-.4-.9-.4-1.5,0-.9.3-1.6,1-2.2s1.5-.8,2.6-.8,2,.3,2.6.8,1,1.2,1.1,2.2h-2.6c0-.3-.1-.6-.4-.8-.2-.2-.5-.3-.8-.3s-.5,0-.7.2-.3.4-.3.7.2.6.5.7.8.4,1.4.6,1.2.4,1.6.6.7.5,1,.9.4.9.4,1.5-.1,1.1-.4,1.5c-.3.5-.7.8-1.2,1.1-.5.3-1.2.4-1.9.4s-1.4-.1-1.9-.4l-.2.2Z"/>
                    <path class="cls-2" d="M288,128.6c-.6-.3-1.1-.8-1.5-1.4s-.5-1.3-.5-2.1.2-1.5.5-2.1c.4-.6.8-1.1,1.5-1.4s1.3-.5,2.1-.5,1.5.2,2.1.5,1.1.8,1.5,1.4.5,1.3.5,2.1-.2,1.5-.5,2.1c-.4.6-.9,1.1-1.5,1.4s-1.3.5-2.1.5-1.5-.2-2.1-.5ZM291.3,126.5c.3-.3.5-.8.5-1.5s-.2-1.1-.5-1.5c-.3-.3-.7-.5-1.2-.5s-.9.2-1.2.5c-.3.3-.5.8-.5,1.5s.2,1.1.5,1.5c.3.3.7.5,1.1.5s.9-.2,1.2-.5h.1Z"/>
                    <path class="cls-2" d="M299.5,123.1h-1.3v5.9h-2.4v-5.9h-.9v-2h.9v-.2c0-1,.3-1.7.8-2.2s1.4-.8,2.4-.8.3,0,.4,0v2c-.5,0-.8,0-1,.2s-.3.4-.3.9h1.3v2h.1Z"/>
                    <path class="cls-2" d="M305,127v2h-1.2c-.9,0-1.6-.2-2-.6-.5-.4-.7-1.1-.7-2.1v-3.1h-1v-2h1v-1.9h2.4v1.9h1.6v2h-1.6v3.2c0,.2,0,.4.2.5.1.1.3.2.6.2h.9-.2Z"/>
                    <path class="cls-2" d="M317.6,121.1l-2.1,7.9h-2.7l-1.2-5.1-1.3,5.1h-2.7l-2.1-7.9h2.4l1.1,5.6,1.3-5.6h2.6l1.3,5.6,1.1-5.6h2.3Z"/>
                    <path class="cls-2" d="M318.5,122.9c.3-.6.7-1.1,1.2-1.4s1.1-.5,1.8-.5,1,.1,1.5.3c.4.2.7.5,1,.9v-1.1h2.4v7.9h-2.4v-1.1c-.2.4-.6.7-1,.9-.4.2-.9.3-1.5.3s-1.2-.2-1.7-.5-.9-.8-1.2-1.4c-.3-.6-.5-1.3-.5-2.1s.2-1.5.5-2.1h0ZM323.5,123.6c-.3-.3-.7-.5-1.2-.5s-.9.2-1.2.5c-.3.3-.5.8-.5,1.4s.2,1.1.5,1.4.7.5,1.2.5.9-.2,1.2-.5c.3-.3.5-.8.5-1.4s-.2-1.1-.5-1.4Z"/>
                    <path class="cls-2" d="M331.6,121.4c.4-.2.9-.4,1.4-.4v2.6h-.7c-.6,0-1.1.1-1.4.4s-.5.7-.5,1.4v3.7h-2.4v-7.9h2.4v1.3c.3-.4.6-.8,1.1-1h.1Z"/>
                    <path class="cls-2" d="M341.5,125.6h-5.5c0,.5.2.9.5,1.1.3.3.6.4,1,.4.6,0,1-.3,1.3-.8h2.6c-.1.5-.4,1-.7,1.4-.3.4-.8.7-1.3,1-.5.2-1.1.4-1.7.4s-1.5-.2-2.1-.5-1.1-.8-1.4-1.4-.5-1.3-.5-2.1.2-1.5.5-2.1.8-1.1,1.4-1.4,1.3-.5,2.1-.5,1.4.2,2,.5,1.1.8,1.4,1.4.5,1.3.5,2.1,0,.5,0,.7v-.2ZM339.1,124.3c0-.4-.1-.7-.4-1-.3-.2-.6-.4-1.1-.4s-.7.1-1,.4-.4.6-.5,1h3Z"/>
                    <path class="cls-2" d="M353,123.9c-.3.5-.7.9-1.2,1.1-.5.3-1.2.4-2,.4h-1.5v3.6h-2.4v-9.9h3.9c.8,0,1.5.1,2,.4s1,.6,1.2,1.1c.3.5.4,1,.4,1.6s-.1,1.1-.4,1.6h0ZM350.6,123.2c.2-.2.3-.5.3-.9s-.1-.7-.3-.9-.6-.3-1-.3h-1.3v2.5h1.3c.5,0,.8-.1,1-.3h0Z"/>
                    <path class="cls-2" d="M358.1,121.4c.4-.2.9-.4,1.4-.4v2.6h-.7c-.6,0-1.1.1-1.4.4s-.5.7-.5,1.4v3.7h-2.4v-7.9h2.4v1.3c.3-.4.6-.8,1.1-1h.1Z"/>
                    <path class="cls-2" d="M362.2,128.6c-.6-.3-1.1-.8-1.5-1.4s-.5-1.3-.5-2.1.2-1.5.5-2.1c.4-.6.8-1.1,1.5-1.4s1.3-.5,2.1-.5,1.5.2,2.1.5,1.1.8,1.5,1.4.5,1.3.5,2.1-.2,1.5-.5,2.1c-.4.6-.9,1.1-1.5,1.4s-1.3.5-2.1.5-1.5-.2-2.1-.5ZM365.4,126.5c.3-.3.5-.8.5-1.5s-.2-1.1-.5-1.5c-.3-.3-.7-.5-1.2-.5s-.9.2-1.2.5c-.3.3-.5.8-.5,1.5s.2,1.1.5,1.5c.3.3.7.5,1.1.5s.9-.2,1.2-.5h.1Z"/>
                    <path class="cls-2" d="M369.6,122.9c.3-.6.7-1.1,1.2-1.4s1.1-.5,1.8-.5,1,.1,1.4.3.8.5,1,.9v-3.7h2.4v10.4h-2.4v-1.1c-.2.4-.5.7-1,.9-.4.2-.9.3-1.5.3s-1.2-.2-1.8-.5c-.5-.3-.9-.8-1.2-1.4-.3-.6-.5-1.3-.5-2.1s.2-1.5.5-2.1h.1ZM374.5,123.6c-.3-.3-.7-.5-1.2-.5s-.9.2-1.2.5c-.3.3-.5.8-.5,1.4s.2,1.1.5,1.4.7.5,1.2.5.9-.2,1.2-.5c.3-.3.5-.8.5-1.4s-.2-1.1-.5-1.4Z"/>
                    <path class="cls-2" d="M387,121.1v7.9h-2.4v-1.1c-.2.3-.6.6-1,.8-.4.2-.9.3-1.4.3s-1.1-.1-1.6-.4-.8-.7-1.1-1.2c-.3-.5-.4-1.1-.4-1.8v-4.6h2.4v4.3c0,.5.1.9.4,1.2.3.3.6.4,1.1.4s.8-.1,1.1-.4c.3-.3.4-.7.4-1.2v-4.3h2.5Z"/>
                    <path class="cls-2" d="M388.7,122.9c.3-.6.8-1.1,1.4-1.4s1.3-.5,2.1-.5,1.8.3,2.5.8,1.1,1.2,1.3,2.2h-2.6c-.2-.6-.6-.9-1.3-.9s-.8.2-1.1.5c-.3.3-.4.8-.4,1.5s.1,1.1.4,1.5c.3.3.6.5,1.1.5s1-.3,1.3-.9h2.6c-.2.9-.6,1.6-1.3,2.2s-1.5.8-2.5.8-1.5-.2-2.1-.5-1.1-.8-1.4-1.4-.5-1.3-.5-2.1.2-1.5.5-2.1v-.2Z"/>
                    <path class="cls-2" d="M401.6,127v2h-1.2c-.9,0-1.6-.2-2-.6-.5-.4-.7-1.1-.7-2.1v-3.1h-1v-2h1v-1.9h2.4v1.9h1.6v2h-1.6v3.2c0,.2,0,.4.2.5.1.1.3.2.6.2h.9-.2Z"/>
                    <path class="cls-2" d="M404.3,128.8c-.5-.2-1-.6-1.3-1s-.5-.9-.5-1.4h2.4c0,.3.2.5.4.7.2.2.5.3.8.3s.5,0,.7-.2.2-.3.2-.5-.1-.4-.4-.5-.6-.2-1.1-.4c-.6-.1-1-.3-1.4-.4s-.7-.4-1-.7c-.3-.3-.4-.7-.4-1.3s.1-.9.4-1.2c.2-.4.6-.7,1.1-.9.5-.2,1.1-.3,1.7-.3,1,0,1.8.2,2.3.7.6.5.9,1.1,1,1.9h-2.2c0-.3-.2-.5-.4-.6s-.5-.2-.8-.2-.5,0-.6.2c-.2.1-.2.3-.2.4s.1.4.4.5c.2.1.6.2,1.1.3.6.2,1.1.3,1.4.4.4.1.7.4,1,.7.3.3.4.8.4,1.3s-.1.9-.4,1.2c-.3.4-.6.6-1.1.9-.5.2-1,.3-1.7.3s-1.3-.1-1.8-.4v.2Z"/>
                  </g>
                </g>
              </g>
              <g>
                <g>
                  <polygon class="cls-2" points="703.8 179.2 616.1 224.1 528.4 179.2 528.4 1.6 703.8 1.6 703.8 179.2"/>
                  <path class="cls-7" d="M616.1,225.9l-.7-.4-88.5-45.3V0h178.5v180.2l-.9.4-88.4,45.2h0ZM530,178.3l86.1,44,86.1-44V3.3h-172.2v175h0Z"/>
                </g>
                <polygon class="cls-13" points="530 178.3 702.2 3.2 702.2 178.3 616.1 222.3 530 178.3"/>
                <polygon class="cls-5" points="707.8 142 523.6 142 517.6 126.2 523.6 110.5 707.8 110.5 714.6 126.2 707.8 142"/>
                <g>
                  <polygon class="cls-3" points="636.6 35.3 616.1 46.5 595.7 35.3 595.7 3.2 636.6 3.2 636.6 35.3"/>
                  <g>
                    <path class="cls-12" d="M621.3,28.8c.9,1.5,1.7,3,2.6,4.5.2.4,0,.5-.3.7-2.2,1.5-4.7,2.2-7.4,2.2-6.4-.2-11.4-4.6-12.5-11-1.2-6.9,4-13.9,11-14.7,1.2-.1,2.5-.1,3.7,0,.4,0,.6.1.3.6-.7,1.5-1.4,2.9-2.1,4.4-.3.6-.7.4-1.1.5-3.1.4-5.6,2.7-6.3,5.7-.6,2.9.5,5.8,2.9,7.5s5.6,1.8,8.1.2c.3-.2.6-.4,1-.7h0Z"/>
                    <path class="cls-12" d="M615.9,26.9c1.1-1.8,2-3.5,3-5.2,0-.2.3-.3.6-.3h5.6c.3,0,.5.1.6.4.9,1.6,1.9,3.2,2.8,4.8,0,.2.2.4,0,.6-1,1.7-2,3.4-3,5.2-1-1.7-1.9-3.3-2.9-5-.3-.5-.5-.6-1-.6h-5.7,0Z"/>
                    <path class="cls-9" d="M623.1,19.6h-2.4c-.4,0-.5-.1-.5-.5,0-1.7.7-2.9,2.1-3.7.5-.3,1-.5,1.5-.8.3-.2.6-.6.4-1,0-.4-.5-.6-.9-.6-.7,0-1.4.2-1.7.8-.3.4-.4.3-.7,0-.8-.8-.8-1,0-1.7,1.1-.9,2.7-1.1,4-.3s1.6,2.5.6,3.6c-.3.4-.7.6-1.1.9-.4.2-.8.4-1.2.7-.4.2-.9.5-.8,1,0,.2.7.1,1,.1h2.2c.7,0,.5.6.5,1s0,.7-.5.7h-2.4v-.2h0Z"/>
                  </g>
                </g>
                <g class="cls-8">
                  <g class="cls-8">
                    <path class="cls-11" d="M576.3,71.9v4.8h-6.5v19.7h-6v-19.7h-6.5v-4.8h19Z"/>
                    <path class="cls-11" d="M583,95.4c-1.5-.8-2.7-2-3.6-3.5-.9-1.5-1.3-3.3-1.3-5.3s.4-3.8,1.3-5.3c.9-1.5,2.1-2.7,3.6-3.5s3.2-1.2,5.2-1.2,3.6.4,5.2,1.2,2.7,2,3.6,3.5c.9,1.5,1.3,3.3,1.3,5.3s-.4,3.8-1.3,5.3-2.1,2.7-3.7,3.5c-1.5.8-3.3,1.2-5.2,1.2s-3.6-.4-5.1-1.2ZM591.1,90.2c.8-.8,1.2-2,1.2-3.6s-.4-2.7-1.2-3.6c-.8-.8-1.7-1.3-2.9-1.3s-2.1.4-2.9,1.2-1.1,2-1.1,3.6.4,2.7,1.1,3.6,1.7,1.3,2.8,1.3,2.1-.4,2.9-1.3h.1Z"/>
                    <path class="cls-11" d="M609.8,77.4c1-.6,2.2-.8,3.6-.8s3.1.4,4.3,1.2,2.3,2,3.1,3.5,1.1,3.3,1.1,5.3-.4,3.8-1.1,5.3-1.8,2.7-3.1,3.5-2.7,1.2-4.3,1.2-2.5-.3-3.6-.8-1.8-1.3-2.4-2.2v12h-6v-28.7h6v2.7c.6-.9,1.4-1.6,2.4-2.2ZM614.7,83.1c-.8-.8-1.8-1.3-3-1.3s-2.2.4-3,1.3-1.2,2-1.2,3.5.4,2.7,1.2,3.5c.8.9,1.8,1.3,3,1.3s2.2-.4,3-1.3,1.3-2,1.3-3.5-.4-2.7-1.2-3.5h0Z"/>
                    <path class="cls-11" d="M649.8,76.1h-10.9v4.8c.5-.5,1.1-.9,1.9-1.3s1.7-.5,2.7-.5c1.7,0,3.2.4,4.3,1.2,1.1.8,2,1.8,2.5,3.1.5,1.3.8,2.6.8,4.1,0,2.7-.8,4.9-2.3,6.5s-3.7,2.4-6.5,2.4-3.5-.3-4.8-1c-1.4-.6-2.4-1.5-3.2-2.7s-1.1-2.4-1.2-3.9h5.8c0,.7.5,1.3,1,1.8s1.3.7,2.2.7,1.9-.3,2.4-1,.8-1.6.8-2.8-.3-2-.8-2.6c-.6-.6-1.4-.9-2.4-.9s-1.4.2-1.9.6-.8.9-1,1.5h-5.7v-15.1h16.3v5.2h0Z"/>
                    <path class="cls-11" d="M656.8,73.8c1.5-2.3,4-3.4,7.5-3.4s5.9,1.1,7.5,3.4c1.5,2.3,2.3,5.4,2.3,9.4s-.8,7.2-2.3,9.5-4,3.4-7.5,3.4-5.9-1.1-7.5-3.4c-1.5-2.3-2.3-5.5-2.3-9.5s.8-7.1,2.3-9.4ZM667.5,77.8c-.5-1.3-1.6-1.9-3.2-1.9s-2.7.6-3.2,1.9-.8,3.1-.8,5.4,0,2.9.3,3.9c.2,1,.6,1.9,1.1,2.5.6.6,1.4,1,2.5,1s2-.3,2.5-1c.6-.6.9-1.5,1.1-2.5.2-1,.3-2.3.3-3.9,0-2.3-.3-4.1-.8-5.4h.2Z"/>
                  </g>
                </g>
                <g class="cls-8">
                  <g class="cls-8">
                    <path class="cls-11" d="M552.4,165v-7.4h2.6c.9,0,1.6.2,2,.5.5.3.7.8.7,1.5s0,.7-.3,1c-.2.3-.4.5-.8.6.4,0,.7.3.9.6.2.3.3.6.3,1.1s-.2,1.2-.7,1.6-1.1.6-1.9.6h-2.9.1ZM553.9,160.7h1.1c.8,0,1.2-.3,1.2-.9s0-.6-.3-.7c-.2-.1-.5-.2-.9-.2h-1.1v1.9h0ZM553.9,161.8v2h1.3c.4,0,.6,0,.8-.3s.3-.4.3-.7c0-.7-.4-1-1.1-1h-1.4.1Z"/>
                    <path class="cls-11" d="M563.4,161.8h-2.9v2h3.4v1.2h-5v-7.4h4.9v1.2h-3.4v1.8h2.9v1.2h0Z"/>
                    <path class="cls-11" d="M568.7,163.1c0-.3,0-.5-.3-.7s-.6-.3-1.1-.5-.9-.3-1.3-.5c-.8-.5-1.3-1.1-1.3-1.8s0-.8.3-1.1c.2-.3.5-.6,1-.7s.9-.3,1.4-.3,1,0,1.4.3c.4.2.7.5,1,.8s.3.7.3,1.2h-1.5c0-.3,0-.6-.3-.8-.2-.2-.5-.3-.9-.3s-.7,0-.9.2-.3.4-.3.6,0,.4.4.6c.2.2.6.3,1.1.5.9.3,1.5.6,1.9,1s.6.9.6,1.4-.2,1.1-.7,1.5-1.1.5-2,.5-1.1-.1-1.6-.3c-.5-.2-.8-.5-1.1-.9s-.4-.8-.4-1.3h1.5c0,.8.5,1.2,1.5,1.2s.6,0,.8-.2c.2-.1.3-.4.3-.6l.2.2Z"/>
                    <path class="cls-11" d="M576.8,158.8h-2.3v6.2h-1.5v-6.2h-2.2v-1.2h6v1.2Z"/>
                    <path class="cls-11" d="M583.8,163.1c0-.3,0-.5-.3-.7s-.6-.3-1.1-.5-.9-.3-1.3-.5c-.8-.5-1.3-1.1-1.3-1.8s0-.8.3-1.1c.2-.3.5-.6,1-.7s.9-.3,1.4-.3,1,0,1.4.3c.4.2.7.5,1,.8s.3.7.3,1.2h-1.5c0-.3,0-.6-.3-.8-.2-.2-.5-.3-.9-.3s-.7,0-.9.2-.3.4-.3.6,0,.4.4.6c.2.2.6.3,1.1.5.9.3,1.5.6,1.9,1s.6.9.6,1.4-.2,1.1-.7,1.5-1.1.5-2,.5-1.1-.1-1.6-.3c-.5-.2-.8-.5-1.1-.9s-.4-.8-.4-1.3h1.5c0,.8.5,1.2,1.5,1.2s.6,0,.8-.2c.2-.1.3-.4.3-.6l.2.2Z"/>
                    <path class="cls-11" d="M592.4,161.5c0,.7,0,1.4-.4,1.9-.3.5-.6,1-1.1,1.3s-1,.4-1.6.4-1.2-.1-1.6-.4c-.5-.3-.9-.7-1.1-1.3-.3-.5-.4-1.2-.4-1.9v-.4c0-.7,0-1.4.4-1.9s.6-1,1.1-1.3,1-.4,1.6-.4,1.2.1,1.6.4c.5.3.8.7,1.1,1.3s.4,1.2.4,1.9v.3h0ZM590.9,161.1c0-.8,0-1.4-.4-1.8-.3-.4-.7-.6-1.2-.6s-.9.2-1.2.6-.4,1-.4,1.8v.4c0,.8,0,1.3.4,1.8.3.4.7.6,1.2.6s.9-.2,1.2-.6.4-1,.4-1.8v-.4Z"/>
                    <path class="cls-11" d="M598,162h-2.9v3h-1.5v-7.4h4.8v1.2h-3.3v1.9h2.9v1.2h0Z"/>
                    <path class="cls-11" d="M604.9,158.8h-2.3v6.2h-1.5v-6.2h-2.2v-1.2h6v1.2Z"/>
                    <path class="cls-11" d="M611.6,162.9l1-5.3h1.5l-1.6,7.4h-1.5l-1.2-4.9-1.2,4.9h-1.5l-1.6-7.4h1.5l1,5.3,1.2-5.3h1.3l1.2,5.3h-.1Z"/>
                    <path class="cls-11" d="M618.9,163.5h-2.7l-.5,1.5h-1.6l2.8-7.4h1.4l2.8,7.4h-1.6l-.5-1.5h-.1ZM616.6,162.2h1.8l-.9-2.8-.9,2.8h0Z"/>
                    <path class="cls-11" d="M624.5,162.3h-1.2v2.7h-1.5v-7.4h2.7c.9,0,1.5.2,2,.6s.7.9.7,1.7,0,.9-.3,1.3c-.2.3-.5.6-1,.8l1.6,3h-1.6l-1.4-2.7ZM623.2,161.1h1.2c.4,0,.7,0,.9-.3.2-.2.3-.5.3-.8s0-.6-.3-.8c-.2-.2-.5-.3-.9-.3h-1.2v2.2h0Z"/>
                    <path class="cls-11" d="M632.8,161.8h-2.9v2h3.4v1.2h-5v-7.4h4.9v1.2h-3.4v1.8h2.9v1.2h0Z"/>
                    <path class="cls-11" d="M641,163.5h-2.7l-.5,1.5h-1.6l2.8-7.4h1.4l2.8,7.4h-1.6l-.5-1.5h-.1ZM638.7,162.2h1.8l-.9-2.8-.9,2.8h0Z"/>
                    <path class="cls-11" d="M649.4,162.9l1-5.3h1.5l-1.6,7.4h-1.5l-1.2-4.9-1.2,4.9h-1.5l-1.6-7.4h1.5l1,5.3,1.2-5.3h1.3l1.2,5.3h-.1Z"/>
                    <path class="cls-11" d="M656.6,163.5h-2.7l-.5,1.5h-1.6l2.8-7.4h1.4l2.8,7.4h-1.6l-.5-1.5h-.1ZM654.4,162.2h1.8l-.9-2.8-.9,2.8h0Z"/>
                    <path class="cls-11" d="M662.2,162.3h-1.2v2.7h-1.5v-7.4h2.7c.9,0,1.5.2,2,.6s.7.9.7,1.7,0,.9-.3,1.3c-.2.3-.5.6-1,.8l1.6,3h-1.6l-1.4-2.7ZM661,161.1h1.2c.4,0,.7,0,.9-.3.2-.2.3-.5.3-.8s0-.6-.3-.8c-.2-.2-.5-.3-.9-.3h-1.2v2.2h0Z"/>
                    <path class="cls-11" d="M666.1,165v-7.4h2.3c.7,0,1.2.1,1.7.4s.9.7,1.2,1.2.4,1.2.4,1.8v.3c0,.7,0,1.3-.4,1.8-.3.5-.7,1-1.2,1.2-.5.3-1.1.4-1.7.4h-2.3v.3ZM667.6,158.8v4.9h.7c.6,0,1.1-.2,1.4-.6.3-.4.5-.9.5-1.7v-.4c0-.8-.2-1.3-.5-1.7s-.8-.6-1.4-.6h-.8,0Z"/>
                    <path class="cls-11" d="M676.7,163.1c0-.3,0-.5-.3-.7s-.6-.3-1.1-.5-.9-.3-1.3-.5c-.8-.5-1.3-1.1-1.3-1.8s0-.8.3-1.1c.2-.3.5-.6,1-.7s.9-.3,1.4-.3,1,0,1.4.3c.4.2.7.5,1,.8s.3.7.3,1.2h-1.5c0-.3,0-.6-.3-.8-.2-.2-.5-.3-.9-.3s-.7,0-.9.2-.3.4-.3.6,0,.4.4.6c.2.2.6.3,1.1.5.9.3,1.5.6,1.9,1s.6.9.6,1.4-.2,1.1-.7,1.5-1.1.5-2,.5-1.1-.1-1.6-.3c-.5-.2-.8-.5-1.1-.9s-.4-.8-.4-1.3h1.5c0,.8.5,1.2,1.5,1.2s.6,0,.8-.2c.2-.1.3-.4.3-.6l.2.2Z"/>
                  </g>
                </g>
                <g class="cls-8">
                  <g class="cls-8">
                    <path class="cls-11" d="M603.1,190.2h-10.1v-2l4.8-5.1c.7-.7,1.1-1.3,1.5-1.9.3-.5.5-1,.5-1.5s-.2-1.2-.5-1.5-.8-.6-1.4-.6-1.2.2-1.6.7c-.4.5-.6,1.1-.6,1.8h-2.9c0-.9.2-1.7.6-2.5.4-.7,1-1.3,1.8-1.8.8-.4,1.7-.6,2.7-.6,1.5,0,2.7.4,3.5,1.1s1.3,1.8,1.3,3.1-.2,1.5-.6,2.2c-.4.8-1,1.6-1.9,2.7l-3.4,3.5h6.4v2.4h0Z"/>
                    <path class="cls-11" d="M614.9,184.1c0,2-.4,3.6-1.3,4.7-.8,1.1-2.1,1.6-3.7,1.6s-2.8-.5-3.7-1.6-1.3-2.6-1.3-4.6v-2.7c0-2.1.4-3.6,1.3-4.7.9-1.1,2.1-1.6,3.7-1.6s2.8.5,3.7,1.6,1.3,2.6,1.3,4.6v2.7ZM612,181.1c0-1.2-.2-2.1-.5-2.7s-.9-.8-1.6-.8-1.2.3-1.5.8-.5,1.4-.5,2.5v3.6c0,1.2.2,2.1.5,2.7s.9.9,1.6.9,1.2-.3,1.6-.8.5-1.4.5-2.6v-3.5h0Z"/>
                    <path class="cls-11" d="M627,190.2h-10.1v-2l4.8-5.1c.7-.7,1.1-1.3,1.5-1.9.3-.5.5-1,.5-1.5s-.2-1.2-.5-1.5-.8-.6-1.4-.6-1.2.2-1.6.7c-.4.5-.6,1.1-.6,1.8h-2.9c0-.9.2-1.7.6-2.5.4-.7,1-1.3,1.8-1.8.8-.4,1.7-.6,2.7-.6,1.5,0,2.7.4,3.5,1.1s1.3,1.8,1.3,3.1-.2,1.5-.6,2.2c-.4.8-1,1.6-1.9,2.7l-3.4,3.5h6.4v2.4h0Z"/>
                    <path class="cls-11" d="M637.5,184.6h1.7v2.4h-1.7v3.2h-2.9v-3.2h-6.1v-1.8c0,0,6-9.7,6-9.7h3v9.2h0ZM631.3,184.6h3.3v-5.2l-.2.3-3.1,4.9h0Z"/>
                  </g>
                </g>
                <g class="cls-8">
                  <g class="cls-8">
                    <path class="cls-2" d="M552.8,115.1v9.9h-2.4v-4.1h-3.8v4.1h-2.4v-9.9h2.4v3.9h3.8v-3.9h2.4Z"/>
                    <path class="cls-2" d="M554.8,115.9c-.3-.2-.4-.6-.4-.9s0-.7.4-.9c.3-.2.6-.4,1-.4s.8.1,1,.4c.3.2.4.6.4.9s0,.7-.4.9c-.3.2-.6.4-1,.4s-.8-.1-1-.4ZM557,117.1v7.9h-2.4v-7.9h2.4Z"/>
                    <path class="cls-2" d="M563.2,117.4c.4.2.7.5,1,.9v-1.1h2.4v7.9c0,.7,0,1.4-.4,2-.3.6-.7,1.1-1.3,1.4s-1.3.5-2.2.5-2.1-.3-2.8-.8-1.1-1.3-1.2-2.2h2.4c0,.3.3.5.5.7.3.2.6.3,1,.3s.9-.1,1.2-.4.4-.7.4-1.4v-1.1c-.2.4-.6.7-1,.9-.4.2-.9.3-1.5.3s-1.2-.2-1.8-.5-.9-.8-1.2-1.4-.5-1.3-.5-2.1.2-1.5.5-2.1.7-1.1,1.2-1.4,1.1-.5,1.8-.5,1,.1,1.5.3v-.2ZM563.7,119.6c-.3-.3-.7-.5-1.2-.5s-.9.2-1.2.5-.5.8-.5,1.4.2,1.1.5,1.4c.3.4.7.5,1.2.5s.9-.2,1.2-.5.5-.8.5-1.4-.2-1.1-.5-1.4Z"/>
                    <path class="cls-2" d="M575.3,117.9c.5.6.8,1.4.8,2.5v4.6h-2.4v-4.3c0-.5,0-.9-.4-1.2-.3-.3-.6-.4-1.1-.4s-.8.1-1.1.4-.4.7-.4,1.2v4.3h-2.4v-10.4h2.4v3.6c.2-.3.6-.6,1-.8.4-.2.9-.3,1.4-.3.9,0,1.6.3,2.2.9h0Z"/>
                    <path class="cls-2" d="M585.2,121.6h-5.5c0,.5.2.9.5,1.1.3.3.6.4,1,.4.6,0,1-.3,1.3-.8h2.6c0,.5-.4,1-.7,1.4s-.8.7-1.3,1c-.5.2-1.1.4-1.7.4s-1.5-.2-2.1-.5-1.1-.8-1.4-1.4c-.3-.6-.5-1.3-.5-2.1s.2-1.5.5-2.1.8-1.1,1.4-1.4,1.3-.5,2.1-.5,1.4.2,2,.5,1.1.8,1.4,1.4c.3.6.5,1.3.5,2.1s0,.5,0,.7v-.2ZM582.8,120.3c0-.4,0-.7-.4-1-.3-.2-.6-.4-1.1-.4s-.7.1-1,.4-.4.6-.5,1h3Z"/>
                    <path class="cls-2" d="M587.9,124.8c-.5-.2-1-.6-1.3-1s-.5-.9-.5-1.4h2.4c0,.3.2.5.4.7s.5.3.8.3.5,0,.7-.2c.2-.1.2-.3.2-.5s0-.4-.4-.5c-.2-.1-.6-.2-1.1-.4-.6-.1-1-.3-1.4-.4s-.7-.4-1-.7c-.3-.3-.4-.7-.4-1.3s0-.9.4-1.2c.2-.4.6-.7,1.1-.9.5-.2,1.1-.3,1.7-.3,1,0,1.8.2,2.3.7.6.5.9,1.1,1,1.9h-2.2c0-.3-.2-.5-.4-.6s-.5-.2-.8-.2-.5,0-.6.2c-.2.1-.2.3-.2.4s0,.4.4.5c.2.1.6.2,1.1.3.6.2,1.1.3,1.4.4.4.1.7.4,1,.7.3.3.4.8.4,1.3s0,.9-.4,1.2c-.3.4-.6.6-1.1.9-.5.2-1,.3-1.7.3s-1.3-.1-1.8-.4v.2Z"/>
                    <path class="cls-2" d="M598.8,123v2h-1.2c-.9,0-1.6-.2-2-.6-.5-.4-.7-1.1-.7-2.1v-3.1h-1v-2h1v-1.9h2.4v1.9h1.6v2h-1.6v3.2c0,.2,0,.4.2.5,0,.1.3.2.6.2h.9-.2Z"/>
                    <path class="cls-2" d="M604.7,124.7c-.6-.2-1-.6-1.4-1-.3-.5-.5-1-.5-1.7h2.6c0,.4.2.6.4.8.2.2.5.3.8.3s.6,0,.8-.2.3-.4.3-.7,0-.4-.2-.6-.4-.3-.6-.4c-.2-.1-.6-.2-1-.4-.6-.2-1.2-.4-1.6-.6-.4-.2-.8-.5-1-.9-.3-.4-.4-.9-.4-1.5,0-.9.3-1.6,1-2.2.7-.5,1.5-.8,2.6-.8s2,.3,2.6.8c.7.5,1,1.2,1.1,2.2h-2.6c0-.3,0-.6-.4-.8-.2-.2-.5-.3-.8-.3s-.5,0-.7.2-.3.4-.3.7.2.6.5.7.8.4,1.4.6c.6.2,1.2.4,1.6.6.4.2.7.5,1,.9s.4.9.4,1.5,0,1.1-.4,1.5c-.3.5-.7.8-1.2,1.1-.5.3-1.2.4-1.9.4s-1.4-.1-1.9-.4l-.2.2Z"/>
                    <path class="cls-2" d="M611.7,118.9c.3-.6.7-1.1,1.2-1.4s1.1-.5,1.8-.5,1,.1,1.5.3c.4.2.7.5,1,.9v-1.1h2.4v7.9h-2.4v-1.1c-.2.4-.6.7-1,.9s-.9.3-1.5.3-1.2-.2-1.7-.5-.9-.8-1.2-1.4-.5-1.3-.5-2.1.2-1.5.5-2.1h0ZM616.7,119.6c-.3-.3-.7-.5-1.2-.5s-.9.2-1.2.5-.5.8-.5,1.4.2,1.1.5,1.4c.3.4.7.5,1.2.5s.9-.2,1.2-.5.5-.8.5-1.4-.2-1.1-.5-1.4Z"/>
                    <path class="cls-2" d="M625.7,123v2h-1.2c-.9,0-1.6-.2-2-.6-.5-.4-.7-1.1-.7-2.1v-3.1h-1v-2h1v-1.9h2.4v1.9h1.6v2h-1.6v3.2c0,.2,0,.4.2.5s.3.2.6.2h.9-.2Z"/>
                    <path class="cls-2" d="M627.2,115.9c-.3-.2-.4-.6-.4-.9s0-.7.4-.9c.3-.2.6-.4,1-.4s.8.1,1,.4c.3.2.4.6.4.9s0,.7-.4.9c-.3.2-.6.4-1,.4s-.8-.1-1-.4ZM629.5,117.1v7.9h-2.4v-7.9h2.4Z"/>
                    <path class="cls-2" d="M632.6,124.8c-.5-.2-1-.6-1.3-1s-.5-.9-.5-1.4h2.4c0,.3.2.5.4.7s.5.3.8.3.5,0,.7-.2c.2-.1.2-.3.2-.5s0-.4-.4-.5c-.2-.1-.6-.2-1.1-.4-.6-.1-1-.3-1.4-.4s-.7-.4-1-.7c-.3-.3-.4-.7-.4-1.3s0-.9.4-1.2c.2-.4.6-.7,1.1-.9s1.1-.3,1.7-.3c1,0,1.8.2,2.3.7.6.5.9,1.1,1,1.9h-2.2c0-.3-.2-.5-.4-.6s-.5-.2-.8-.2-.5,0-.6.2c-.2.1-.2.3-.2.4s0,.4.4.5c.2.1.6.2,1.1.3.6.2,1.1.3,1.4.4.4.1.7.4,1,.7.3.3.4.8.4,1.3s0,.9-.4,1.2c-.3.4-.6.6-1.1.9-.5.2-1,.3-1.7.3s-1.3-.1-1.8-.4v.2Z"/>
                    <path class="cls-2" d="M643,119.1h-1.3v5.9h-2.4v-5.9h-.9v-2h.9v-.2c0-1,.3-1.7.8-2.2s1.4-.8,2.4-.8.3,0,.4,0v2c-.5,0-.8,0-1,.2s-.3.4-.3.9h1.3v2h0Z"/>
                    <path class="cls-2" d="M644.1,118.9c.3-.6.7-1.1,1.2-1.4s1.1-.5,1.8-.5,1,.1,1.5.3c.4.2.7.5,1,.9v-1.1h2.4v7.9h-2.4v-1.1c-.2.4-.6.7-1,.9s-.9.3-1.5.3-1.2-.2-1.7-.5-.9-.8-1.2-1.4-.5-1.3-.5-2.1.2-1.5.5-2.1h0ZM649.1,119.6c-.3-.3-.7-.5-1.2-.5s-.9.2-1.2.5-.5.8-.5,1.4.2,1.1.5,1.4c.3.4.7.5,1.2.5s.9-.2,1.2-.5.5-.8.5-1.4-.2-1.1-.5-1.4Z"/>
                    <path class="cls-2" d="M653.8,118.9c.3-.6.8-1.1,1.4-1.4s1.3-.5,2.1-.5,1.8.3,2.5.8,1.1,1.2,1.3,2.2h-2.6c-.2-.6-.6-.9-1.3-.9s-.8.2-1.1.5-.4.8-.4,1.5,0,1.1.4,1.5c.3.3.6.5,1.1.5s1-.3,1.3-.9h2.6c-.2.9-.6,1.6-1.3,2.2-.7.5-1.5.8-2.5.8s-1.5-.2-2.1-.5-1.1-.8-1.4-1.4c-.3-.6-.5-1.3-.5-2.1s.2-1.5.5-2.1v-.2Z"/>
                    <path class="cls-2" d="M666.6,123v2h-1.2c-.9,0-1.6-.2-2-.6-.5-.4-.7-1.1-.7-2.1v-3.1h-1v-2h1v-1.9h2.4v1.9h1.6v2h-1.6v3.2c0,.2,0,.4.2.5s.3.2.6.2h.9-.2Z"/>
                    <path class="cls-2" d="M668.2,115.9c-.3-.2-.4-.6-.4-.9s0-.7.4-.9c.3-.2.6-.4,1-.4s.8.1,1,.4c.3.2.4.6.4.9s0,.7-.4.9c-.3.2-.6.4-1,.4s-.8-.1-1-.4ZM670.4,117.1v7.9h-2.4v-7.9h2.4Z"/>
                    <path class="cls-2" d="M673.6,124.6c-.6-.3-1.1-.8-1.5-1.4s-.5-1.3-.5-2.1.2-1.5.5-2.1c.4-.6.8-1.1,1.5-1.4.6-.3,1.3-.5,2.1-.5s1.5.2,2.1.5,1.1.8,1.5,1.4.5,1.3.5,2.1-.2,1.5-.5,2.1c-.4.6-.9,1.1-1.5,1.4s-1.3.5-2.1.5-1.5-.2-2.1-.5ZM676.9,122.5c.3-.3.5-.8.5-1.5s-.2-1.1-.5-1.5c-.3-.3-.7-.5-1.2-.5s-.9.2-1.2.5-.5.8-.5,1.5.2,1.1.5,1.5c.3.3.7.5,1.1.5s.9-.2,1.2-.5h.1Z"/>
                    <path class="cls-2" d="M688.1,117.9c.5.6.8,1.4.8,2.5v4.6h-2.4v-4.3c0-.5,0-.9-.4-1.2-.3-.3-.6-.4-1.1-.4s-.8.1-1.1.4-.4.7-.4,1.2v4.3h-2.4v-7.9h2.4v1c.2-.3.6-.6,1-.8s.9-.3,1.4-.3c.9,0,1.7.3,2.2.9h0Z"/>
                  </g>
                  <g class="cls-8">
                    <path class="cls-2" d="M593.4,134.7c-.3.5-.7.9-1.2,1.1s-1.2.4-2,.4h-1.5v3.6h-2.4v-9.9h3.9c.8,0,1.5.1,2,.4s1,.6,1.2,1.1.4,1,.4,1.6,0,1.1-.4,1.6h0ZM591,134c.2-.2.3-.5.3-.9s0-.7-.3-.9-.6-.3-1-.3h-1.3v2.5h1.3c.5,0,.8-.1,1-.3h0Z"/>
                    <path class="cls-2" d="M598.5,132.2c.4-.2.9-.4,1.4-.4v2.6h-.7c-.6,0-1.1.1-1.4.4-.3.3-.5.7-.5,1.4v3.7h-2.4v-7.9h2.4v1.3c.3-.4.6-.8,1.1-1h.1Z"/>
                    <path class="cls-2" d="M602.6,139.4c-.6-.3-1.1-.8-1.5-1.4s-.5-1.3-.5-2.1.2-1.5.5-2.1c.4-.6.8-1.1,1.5-1.4.6-.3,1.3-.5,2.1-.5s1.5.2,2.1.5,1.1.8,1.5,1.4.5,1.3.5,2.1-.2,1.5-.5,2.1c-.4.6-.9,1.1-1.5,1.4s-1.3.5-2.1.5-1.5-.2-2.1-.5ZM605.9,137.3c.3-.3.5-.8.5-1.5s-.2-1.1-.5-1.5c-.3-.3-.7-.5-1.2-.5s-.9.2-1.2.5-.5.8-.5,1.5.2,1.1.5,1.5c.3.3.7.5,1.1.5s.9-.2,1.2-.5h.1Z"/>
                    <path class="cls-2" d="M610.1,133.7c.3-.6.7-1.1,1.2-1.4s1.1-.5,1.8-.5,1,.1,1.4.3.8.5,1,.9v-3.7h2.4v10.4h-2.4v-1.1c-.2.4-.5.7-1,.9-.4.2-.9.3-1.5.3s-1.2-.2-1.8-.5c-.5-.3-.9-.8-1.2-1.4s-.5-1.3-.5-2.1.2-1.5.5-2.1h0ZM615,134.4c-.3-.3-.7-.5-1.2-.5s-.9.2-1.2.5-.5.8-.5,1.4.2,1.1.5,1.4c.3.4.7.5,1.2.5s.9-.2,1.2-.5.5-.8.5-1.4-.2-1.1-.5-1.4Z"/>
                    <path class="cls-2" d="M627.4,131.9v7.9h-2.4v-1.1c-.2.3-.6.6-1,.8-.4.2-.9.3-1.4.3s-1.1-.1-1.6-.4-.8-.7-1.1-1.2-.4-1.1-.4-1.8v-4.6h2.4v4.3c0,.5,0,.9.4,1.2.3.3.6.4,1.1.4s.8-.1,1.1-.4.4-.7.4-1.2v-4.3h2.5Z"/>
                    <path class="cls-2" d="M629.2,133.7c.3-.6.8-1.1,1.4-1.4.6-.3,1.3-.5,2.1-.5s1.8.3,2.5.8,1.1,1.2,1.3,2.2h-2.6c-.2-.6-.6-.9-1.3-.9s-.8.2-1.1.5-.4.8-.4,1.5,0,1.1.4,1.5c.3.3.6.5,1.1.5s1-.3,1.3-.9h2.6c-.2.9-.6,1.6-1.3,2.2-.7.5-1.5.8-2.5.8s-1.5-.2-2.1-.5-1.1-.8-1.4-1.4c-.3-.6-.5-1.3-.5-2.1s.2-1.5.5-2.1v-.2Z"/>
                    <path class="cls-2" d="M642.1,137.8v2h-1.2c-.9,0-1.6-.2-2-.6-.5-.4-.7-1.1-.7-2.1v-3.1h-1v-2h1v-1.9h2.4v1.9h1.6v2h-1.6v3.2c0,.2,0,.4.2.5,0,.1.3.2.6.2h.9-.2Z"/>
                    <path class="cls-2" d="M644.8,139.6c-.5-.2-1-.6-1.3-1s-.5-.9-.5-1.4h2.4c0,.3.2.5.4.7s.5.3.8.3.5,0,.7-.2c.2-.1.2-.3.2-.5s0-.4-.4-.5c-.2-.1-.6-.2-1.1-.4-.6-.1-1-.3-1.4-.4s-.7-.4-1-.7c-.3-.3-.4-.7-.4-1.3s0-.9.4-1.2c.2-.4.6-.7,1.1-.9s1.1-.3,1.7-.3c1,0,1.8.2,2.3.7.6.5.9,1.1,1,1.9h-2.2c0-.3-.2-.5-.4-.6s-.5-.2-.8-.2-.5,0-.6.2c-.2.1-.2.3-.2.4s0,.4.4.5c.2.1.6.2,1.1.3.6.2,1.1.3,1.4.4.4.1.7.4,1,.7.3.3.4.8.4,1.3s0,.9-.4,1.2c-.3.4-.6.6-1.1.9-.5.2-1,.3-1.7.3s-1.3-.1-1.8-.4v.2Z"/>
                  </g>
                </g>
              </g>
            </g>
            <g>
              <path class="cls-10" d="M484.4,410.3c-39,.8-72.3-29.2-73.5-69.5-1.2-39.4,29.4-71.7,68.4-73.5,39.4-1.8,72.9,28.9,74.6,68.2,1.8,40-29,73-69.6,74.7h0Z"/>
              <path class="cls-12" d="M498.1,355.7c2.6,4.6,5.2,9.1,7.9,13.6.7,1.2-.2,1.5-.9,2-6.8,4.5-14.2,6.8-22.3,6.5-19.5-.6-34.7-14-38-33.2-3.6-21,12.3-42,33.5-44.5,3.8-.4,7.5-.4,11.2,0,1.2.2,1.7.4,1,1.8-2.2,4.4-4.4,8.8-6.4,13.3-.8,1.7-2.2,1.3-3.4,1.4-9.5,1.3-16.9,8-19,17.4-1.9,8.7,1.6,17.7,8.9,22.8,7.3,5.2,16.9,5.5,24.5.7.9-.6,1.8-1.2,2.9-2v.2h0Z"/>
              <path class="cls-12" d="M481.8,349.9c3.2-5.5,6.2-10.6,9.1-15.8.4-.7.9-1,1.7-1h17c.9,0,1.4.3,1.9,1.1,2.8,4.9,5.6,9.8,8.5,14.6.4.7.5,1.2,0,2-3,5.2-6.1,10.4-9.2,15.9-3-5.2-5.9-10.1-8.7-15-.8-1.4-1.6-1.8-3.2-1.8h-17.2.1Z"/>
              <path class="cls-9" d="M503.7,327.8h-7.4c-1.3,0-1.6-.4-1.6-1.7,0-5,2.2-8.7,6.5-11.1,1.5-.9,3.1-1.6,4.6-2.6,1-.7,1.7-1.7,1.3-3.1-.4-1.3-1.5-1.8-2.8-1.9-2.2-.2-4.1.7-5.3,2.5-.8,1.3-1.3,1.1-2.2,0-2.4-2.4-2.4-3,.2-5.2,3.3-2.8,8.3-3.2,12.1-1,3.9,2.3,4.8,7.4,1.7,10.8-1,1.1-2.1,1.9-3.4,2.6-1.3.7-2.6,1.3-3.8,2-1.1.7-2.8,1.6-2.3,2.9.2.5,2,.4,3,.4h6.7c2.2,0,1.5,1.8,1.5,2.9s.3,2.3-1.5,2.2h-7.2v.2h0Z"/>
            </g>
            <g class="cls-8">
              <g class="cls-8">
                <path class="cls-2" d="M211,493.2h-28.2l-5.2,14.4h-8.9l23.4-64.4h9.8l23.3,64.4h-8.9l-5.2-14.4h0ZM208.6,486.3l-11.7-32.7-11.7,32.7h23.4Z"/>
                <path class="cls-2" d="M303.2,456.7l-15.9,50.9h-8.7l-12.3-40.4-12.3,40.4h-8.7l-16-50.9h8.6l11.7,42.7,12.6-42.7h8.6l12.4,42.8,11.5-42.8h8.5Z"/>
                <path class="cls-2" d="M311.5,468.3c2.1-3.9,5-7,8.7-9.2s7.8-3.3,12.3-3.3,8.3,1,11.6,2.9c3.3,1.9,5.7,4.3,7.3,7.2v-9.3h8.5v50.9h-8.5v-9.5c-1.7,3-4.2,5.4-7.5,7.4s-7.2,2.9-11.6,2.9-8.6-1.1-12.3-3.3c-3.7-2.2-6.5-5.4-8.6-9.4s-3.2-8.6-3.2-13.7,1.1-9.8,3.2-13.7h.1ZM349.2,472c-1.5-2.8-3.6-5-6.3-6.5-2.6-1.5-5.5-2.3-8.7-2.3s-6,.7-8.6,2.2-4.7,3.7-6.2,6.5-2.3,6.2-2.3,10,.8,7.3,2.3,10.2,3.6,5.1,6.2,6.6,5.5,2.3,8.6,2.3,6.1-.8,8.7-2.3,4.7-3.7,6.3-6.6c1.5-2.9,2.3-6.2,2.3-10.1s-.8-7.2-2.3-10h0Z"/>
                <path class="cls-2" d="M389.2,458.2c2.8-1.6,6.1-2.4,10.1-2.4v8.7h-2.2c-9.5,0-14.2,5.1-14.2,15.4v27.7h-8.5v-50.9h8.5v8.3c1.5-2.9,3.6-5.2,6.4-6.8h0Z"/>
                <path class="cls-2" d="M409,468.3c2.1-3.9,5-7,8.7-9.2s7.8-3.3,12.4-3.3,7.6.9,11.1,2.7c3.4,1.8,6,4.2,7.8,7.2v-26.9h8.5v68.7h-8.5v-9.6c-1.7,3-4.1,5.5-7.4,7.5s-7.1,2.9-11.5,2.9-8.6-1.1-12.3-3.3c-3.7-2.2-6.6-5.4-8.7-9.4s-3.2-8.6-3.2-13.7,1.1-9.8,3.2-13.7h-.1ZM446.6,472c-1.5-2.8-3.6-5-6.3-6.5-2.6-1.5-5.5-2.3-8.7-2.3s-6,.7-8.6,2.2-4.7,3.7-6.2,6.5-2.3,6.2-2.3,10,.8,7.3,2.3,10.2,3.6,5.1,6.2,6.6,5.5,2.3,8.6,2.3,6.1-.8,8.7-2.3,4.7-3.7,6.3-6.6c1.5-2.9,2.3-6.2,2.3-10.1s-.8-7.2-2.3-10h0Z"/>
                <path class="cls-2" d="M479.3,506.4c-3.1-1.3-5.5-3.2-7.3-5.6-1.8-2.4-2.8-5.1-3-8.2h8.7c.2,2.5,1.4,4.6,3.6,6.2,2.1,1.6,4.9,2.4,8.4,2.4s5.8-.7,7.6-2.1c1.9-1.4,2.8-3.2,2.8-5.4s-1-3.9-3-5-5-2.2-9.2-3.2c-3.8-1-6.9-2-9.2-3-2.4-1-4.4-2.5-6.1-4.6-1.7-2-2.6-4.7-2.6-7.9s.8-5,2.3-7.2,3.7-3.9,6.6-5.2c2.8-1.3,6.1-1.9,9.8-1.9,5.6,0,10.2,1.4,13.7,4.3,3.5,2.8,5.3,6.8,5.6,11.7h-8.5c-.2-2.7-1.3-4.8-3.2-6.4-2-1.6-4.6-2.4-7.8-2.4s-5.5.7-7.2,2c-1.8,1.3-2.7,3-2.7,5.1s.5,3.1,1.6,4.1c1.1,1.1,2.4,2,4.1,2.6,1.6.6,3.9,1.4,6.8,2.2,3.7,1,6.6,2,8.9,2.9,2.3,1,4.3,2.4,5.9,4.3,1.6,1.9,2.5,4.4,2.6,7.5,0,2.8-.8,5.3-2.3,7.5s-3.7,4-6.5,5.2c-2.8,1.3-6.1,1.9-9.7,1.9s-7.4-.7-10.5-2l-.2.2Z"/>
              </g>
              <g class="cls-8">
                <path class="cls-2" d="M544.5,492.6c6.1-5,10.9-9.1,14.4-12.4,3.5-3.2,6.5-6.6,8.9-10.1s3.6-7,3.6-10.3-.6-4.5-1.8-5.9-2.9-2.1-5.3-2.1-4.2.9-5.5,2.6c-1.3,1.8-2,4.3-2,7.5h-15.3c0-5.3,1.3-9.7,3.4-13.2s5-6.1,8.5-7.8,7.4-2.5,11.7-2.5c7.4,0,12.9,1.9,16.7,5.7,3.7,3.8,5.6,8.7,5.6,14.8s-2.3,12.8-6.8,18.4c-4.5,5.7-10.3,11.2-17.3,16.6h25.1v12.9h-46.6v-11.8c2.1-1.7,3.1-2.4,2.9-2.3h-.2Z"/>
                <path class="cls-2" d="M601.4,447.6c4.1-6.1,10.8-9.2,19.9-9.2s15.8,3.1,19.9,9.2c4.1,6.1,6.2,14.5,6.2,25.2s-2.1,19.2-6.2,25.4c-4.1,6.1-10.8,9.2-19.9,9.2s-15.8-3.1-19.9-9.2c-4.1-6.1-6.2-14.6-6.2-25.4s2.1-19,6.2-25.2ZM629.8,458.3c-1.4-3.4-4.2-5.1-8.5-5.1s-7.1,1.7-8.5,5.1c-1.4,3.4-2,8.2-2,14.4s.2,7.7.7,10.5,1.5,5,3,6.7,3.8,2.6,6.7,2.6,5.2-.9,6.7-2.6c1.5-1.7,2.5-3.9,3-6.7s.7-6.2.7-10.5c0-6.3-.7-11.1-2-14.4h.2Z"/>
                <path class="cls-2" d="M658.1,492.6c6.1-5,10.9-9.1,14.4-12.4,3.5-3.2,6.5-6.6,8.9-10.1s3.6-7,3.6-10.3-.6-4.5-1.8-5.9-2.9-2.1-5.3-2.1-4.2.9-5.5,2.6c-1.3,1.8-2,4.3-2,7.5h-15.3c0-5.3,1.3-9.7,3.4-13.2s5-6.1,8.5-7.8,7.4-2.5,11.7-2.5c7.4,0,12.9,1.9,16.7,5.7,3.7,3.8,5.6,8.7,5.6,14.8s-2.3,12.8-6.8,18.4c-4.5,5.7-10.3,11.2-17.3,16.6h25.1v12.9h-46.6v-11.8c2.1-1.7,3.1-2.4,2.9-2.3h-.2Z"/>
                <path class="cls-2" d="M709.2,495.5v-12.8l29.4-42h17.7v41.1h7.6v13.7h-7.6v12.1h-15.9v-12.1h-31.2ZM741.5,458.2l-15.6,23.6h15.6v-23.6Z"/>
              </g>
            </g>
          </g>
        </g>
      </g>
    </g>
  </g>
</svg>