<?xml version="1.0" encoding="UTF-8"?>
<svg xmlns="http://www.w3.org/2000/svg" version="1.1" viewBox="0 0 662.9 184.9">
  <defs>
    <style>
      .cls-1 {
        fill: #fff;
      }

      .cls-2 {
        isolation: isolate;
      }

      .cls-3 {
        fill: #fe9800;
      }
    </style>
  </defs>
  <!-- Generator: Adobe Illustrator 28.7.0, SVG Export Plug-In . SVG Version: 1.2.0 Build 136)  -->
  <g>
    <g id="Layer_1">
      <g id="Layer_1-2" data-name="Layer_1">
        <g>
          <g>
            <path class="cls-1" d="M86.4,15.4c2.7-7,7.5-10.9,15.2-11.1,7.8,0,12.4,4.2,15.3,11,.4-.9.7-1.6,1.1-2.2,2.8-5.1,7.2-7.9,13-8.6,3.4-.4,6.6,0,9.7,1.6,5,2.4,7.8,6.4,8.6,11.9.3,2,.4,4.2.3,6.2v42.6c0,1.9-.8,2.7-2.8,2.7h-10.6c-1.8,0-2.7-.9-2.7-2.7V30.5c0-2.2,0-4.5-.5-6.7-.8-2.9-2.7-4.4-5.6-4.6-4.2-.4-7.9,2.4-8.6,7.3-.3,2-.5,4-.5,6v34.3c0,1.8-.9,2.7-2.7,2.7h-10.7c-1.7,0-2.6-.9-2.6-2.6V31.8c0-2.7,0-5.3-.8-7.9-.9-2.9-2.8-4.6-5.5-4.7-3.4-.3-5.9,1-7.3,3.7s-1.3,4-1.5,6c-.2,1.8-.2,3.7-.2,5.6v32.4c0,1.8-.9,2.6-2.6,2.6h-10.8c-1.7,0-2.6-.9-2.6-2.5V8.2c0-1.7.8-2.6,2.6-2.6h10.3c1.6,0,2.4.9,2.4,2.4v7.3h.2l-.2.3v-.2Z"/>
            <path class="cls-1" d="M350.9,16.6c.4-.4.5-.7.6-1.1.9-2,1.9-4,3.3-5.7,2.5-3.2,5.8-4.9,9.9-5.3,3.5-.4,6.9,0,10.1,1.6,4.5,2.2,7,6,7.9,10.9.8,3.7,1,7.5,1,11.2v39c0,1.5-.9,2.4-2.3,2.4h-11.2c-1.5,0-2.3-.9-2.3-2.4V30.4c0-2-.2-4.1-.8-6-.7-2.5-2-4.6-4.8-5-2.9-.6-5.4.3-7.3,2.6-1.6,1.9-2.2,4.3-2.6,6.7-.4,2.1-.5,4.2-.5,6.3v32.1c0,1.8-.9,2.6-2.6,2.6h-10.8c-1.7,0-2.6-.9-2.6-2.6V8.1c0-1.6.9-2.4,2.3-2.4h10.6c1.3,0,2.3,1,2.3,2.3v8.6h-.2Z"/>
            <path class="cls-3" d="M160.8,117.2c-8.5,0-15.5-.5-22.6-1.5-26-3.8-49.4-13.7-70-29.9-2.5-1.9-4.9-4.1-7.4-6.2l-.8-.8c-.5-.7-.5-1.5,0-2,.4-.6,1.2-.8,2-.6.6.2,1.1.5,1.6.8,10.9,6.3,22.5,11.4,34.5,15.4s18.3,5.4,27.7,7.1c5.9,1.1,11.9,1.9,17.8,2.4,7.3.7,14.6,1,21.9.8,8.5-.2,17-1,25.4-2.2,16-2.5,31.4-6.8,46.2-13.1,1-.4,1.9-.6,2.9-.2,1.9.7,2.6,2.7,1.4,4.4-.4.5-.9.9-1.5,1.3-7.4,5.3-15.4,9.6-23.8,13.1-10.4,4.3-21,7.3-32.1,9.2-8.2,1.5-16.5,2.1-23.4,2.2h.2v-.2Z"/>
            <path class="cls-1" d="M246.8,18.3h-20.5c-1.1-.2-1.7-1-1.7-2V7.6c0-1.2.8-1.8,1.8-2h39c1.1.2,1.7.9,1.7,1.9v7.6c0,.9-.5,1.7-1,2.4-2,3-4.1,5.9-6.2,8.9-5,7.3-10.2,14.5-15.2,21.7,0,0-.2.3-.3.5.3.2.6,0,.9,0,5.7,0,11.2.7,16.6,2.7,1.5.6,2.9,1.3,4.4,2,1.4.8,2,1.9,2,3.4v9c0,1.7-1.6,2.6-3.1,1.8-7.3-3.7-15-5.1-23.2-4.7-5.8.4-11.3,1.9-16.6,4.6-1.8,1-3.3,0-3.3-2v-9.3c0-2,.6-3.9,1.8-5.5,7.4-10.6,14.7-21.1,22.2-31.7,0-.2.2-.4.4-.7h.3Z"/>
            <path class="cls-3" d="M238,80c-4,0-8.4.6-12.9,1.1-.6,0-1.2.2-1.7,0-1.1,0-1.5-.9-1-1.7.3-.6.8-1,1.3-1.3,4.1-2.8,8.7-4.4,13.6-5.2,4-.7,8-.9,12.1-.6,2.4.2,4.8.5,7.3,1.3s3,1.6,3.1,4.2c0,4.4-.8,8.6-2,12.7-1.7,5.6-4.4,10.8-8.3,15.2-.8.9-1.7,1.7-2.6,2.5-.4.3-.8.6-1.2.7-.5.2-1.1.2-1.5-.2s-.4-.9-.2-1.4c.5-1.4,1.1-2.7,1.6-4.1,1.7-4.5,3.4-8.9,4.5-13.7.4-1.8.8-3.8.6-5.7,0-1.5-.9-2.4-2.2-3-1.9-.8-4-.9-6.1-1h-4.2l-.2.2Z"/>
            <path class="cls-1" d="M43.4,61.9c-1.6,1.6-3.1,3-4.8,4.3-3.9,2.9-8.3,4.1-13.1,4.2-3.1,0-6.1-.2-9-1.5-4.3-1.8-7.2-4.9-8.6-9.4-1.7-5.2-1.6-10.6.5-15.7,2.1-5.2,6-8.6,11.1-10.8,3.7-1.6,7.6-2.3,11.4-2.8,3.2-.4,6.4-.8,9.6-1.1.5,0,.7-.2.7-.7,0-2,0-4.2-.3-6.2-.6-3.5-2.7-5.6-6.2-6.1-3.1-.4-6,.2-8.3,2.3-1.2,1.1-1.9,2.4-2.3,4,0,.5-.2,1-.5,1.5-.5,1-1.3,1.3-2.3,1.2-3.4-.4-6.8-.8-10.2-1.1-1.8-.2-2.5-1.2-2.2-2.9,1.6-7.4,5.9-12.4,13-15.1,8-3,16.3-3.2,24.5-.2,4.7,1.7,8.3,4.8,10.1,9.8,1,2.8,1.2,5.7,1.2,8.7v22.9c0,3.7,1,6.9,3.2,9.7.5.7,1,1.3,1.5,1.9.8,1.2.6,2-.5,3-2.7,2.4-5.5,4.7-8.2,7.2-1.2,1-2.5,1.5-4,0-1.2-1.1-2.3-2-3.2-3.3-1-1.3-1.8-2.5-2.7-3.8h-.4ZM41,39c0-.4,0-.5-.5-.5-3,0-5.9.2-8.8,1.1-3.3,1-6,2.7-7.3,6.1-1,2.6-1.1,5.3-.3,8,.8,2.6,2.4,4.4,5.2,4.8,2.4.5,4.6-.2,6.5-1.6,1.8-1.4,3-3.3,3.9-5.3,1.2-2.8,1.3-5.8,1.3-8.7v-3.8h0Z"/>
            <path class="cls-1" d="M210.4,35.3v12.1c0,3.5,1,6.6,3.1,9.3.5.6,1,1.3,1.4,1.9.7,1.1,1,2.2-.5,3.4-2.7,2.2-5.4,4.7-8.1,7-1.5,1.3-2.5,1.3-4,0-2.2-1.8-4-4.2-5.5-6.6-.3-.5-.5-.5-1,0-2.1,2.1-4.4,4.2-7.1,5.5-2.6,1.4-5.4,2-8.3,2.3-3.5.3-6.9.2-10.3-1.1-5.3-2-8.6-5.9-9.9-11.3-1.3-5.2-.9-10.4,1.5-15.2,2.4-5,6.6-8.1,11.7-10.1,3.7-1.4,7.5-2,11.3-2.5,2.8-.4,5.6-.7,8.4-.9.7,0,.9-.3.8-1,0-1.8,0-3.7-.2-5.6-.5-3.6-2.7-6-6.3-6.4-3.4-.5-6.5.3-8.9,2.9-1,1.1-1.6,2.3-1.8,3.7,0,.6-.3,1.2-.7,1.6-.5.6-1,.8-1.7.8-3.6-.4-7.2-.8-10.8-1.2-1.5-.2-2.1-1.3-1.8-2.7,1.6-7.9,6.5-13.2,14-15.7,7.8-2.6,15.7-2.7,23.4.2,4.5,1.6,7.9,4.6,9.8,9.2,1,2.5,1.4,5.2,1.4,7.9v12.4h.1ZM194,39c0-.4,0-.6-.5-.6-2.5,0-5,.2-7.6.8-2.7.7-5.2,1.6-7,3.9-2.4,2.9-2.7,6.3-1.9,9.9,1.3,5.8,6.7,6.7,10.5,4.7,2.8-1.5,4.5-4,5.5-6.8s1.1-5.6,1.1-8.5v-3.3h-.1Z"/>
            <path class="cls-1" d="M326.9,37.9c0,6.9-1.3,13.4-4.7,19.5-3.6,6.5-8.8,11-16.2,12.7-10.8,2.4-21.2-1.4-27.1-11.7-2.6-4.6-4-9.6-4.7-14.7-.8-6.5-.4-12.9,1.4-19.2,1.5-5,3.7-9.5,7.5-13.3s8.9-6.2,14.5-6.7c4.6-.4,8.9,0,13,2,5.3,2.4,9.1,6.4,11.8,11.5,2.3,4.5,3.6,9.3,4.1,14.2.2,1.8.3,3.8.3,5.6h.1ZM292,48c.5,2.7,1.2,5.3,2.8,7.6,1.8,2.5,4.3,3.3,7.3,2.7,2.8-.6,4.5-2.5,5.6-4.9,1.3-2.8,1.7-5.7,1.9-8.7.4-5.4.4-10.9-.3-16.4-.3-2.5-.8-4.9-1.7-7.3-1.2-2.6-3.2-4.1-6-4.4-3-.3-5.4.6-7.2,3.1-1.3,1.8-1.8,3.9-2.3,6-.7,3.6-.8,7.2-.8,10.4s0,8.1.8,11.9h0Z"/>
          </g>
          <g class="cls-2">
            <g class="cls-2">
              <path class="cls-1" d="M38.1,171.2H12.7l-4.7,12.9H0l21-57.8h8.8l20.9,57.8h-8l-4.7-12.9h0ZM36,165l-10.5-29.4-10.5,29.4h21Z"/>
              <path class="cls-1" d="M60,148.8c1.9-3.5,4.5-6.3,7.9-8.2,3.4-1.9,7.2-2.9,11.6-2.9s10.2,1.4,13.9,4.1c3.6,2.7,6,6.5,7.2,11.3h-8.2c-.8-2.8-2.3-5-4.5-6.6-2.3-1.6-5-2.4-8.4-2.4s-7.8,1.5-10.5,4.5-4,7.2-4,12.6,1.3,9.8,4,12.8,6.2,4.5,10.5,4.5,6.1-.8,8.3-2.3c2.2-1.6,3.8-3.8,4.6-6.7h8.2c-1.2,4.7-3.7,8.4-7.3,11.2-3.7,2.8-8.3,4.2-13.8,4.2s-8.2-1-11.6-2.9-6-4.7-7.9-8.3-2.8-7.7-2.8-12.5.9-8.9,2.8-12.4h0Z"/>
              <path class="cls-1" d="M110.6,148.8c1.9-3.5,4.5-6.3,7.9-8.2,3.4-1.9,7.2-2.9,11.6-2.9s10.2,1.4,13.9,4.1c3.6,2.7,6,6.5,7.2,11.3h-8.2c-.8-2.8-2.3-5-4.5-6.6-2.3-1.6-5-2.4-8.4-2.4s-7.8,1.5-10.5,4.5-4,7.2-4,12.6,1.3,9.8,4,12.8,6.2,4.5,10.5,4.5,6.1-.8,8.3-2.3c2.2-1.6,3.8-3.8,4.6-6.7h8.2c-1.2,4.7-3.7,8.4-7.3,11.2-3.7,2.8-8.3,4.2-13.8,4.2s-8.2-1-11.6-2.9-6-4.7-7.9-8.3-2.8-7.7-2.8-12.5.9-8.9,2.8-12.4h0Z"/>
              <path class="cls-1" d="M202.7,164.1h-36.5c.3,4.5,1.8,8,4.6,10.5,2.8,2.5,6.2,3.8,10.2,3.8s6-.8,8.2-2.3,3.7-3.6,4.6-6.1h8.2c-1.2,4.4-3.7,8-7.3,10.7s-8.2,4.1-13.7,4.1-8.2-1-11.6-2.9-6.1-4.7-8-8.3-2.9-7.7-2.9-12.5.9-8.9,2.8-12.4c1.9-3.6,4.5-6.3,8-8.2,3.4-1.9,7.4-2.9,11.8-2.9s8.2.9,11.5,2.8,5.9,4.5,7.7,7.8c1.8,3.3,2.7,7,2.7,11.2s0,3-.2,4.6h-.1ZM193.2,150.4c-1.3-2.1-3-3.7-5.2-4.8-2.2-1.1-4.6-1.6-7.3-1.6s-7.1,1.2-9.8,3.7c-2.7,2.4-4.2,5.8-4.6,10.2h28.9c0-2.9-.6-5.4-1.9-7.5h-.1Z"/>
              <path class="cls-1" d="M220.5,122.4v61.7h-7.6v-61.7h7.6Z"/>
              <path class="cls-1" d="M274.9,164.1h-36.5c.3,4.5,1.8,8,4.6,10.5,2.8,2.5,6.2,3.8,10.2,3.8s6-.8,8.2-2.3,3.7-3.6,4.6-6.1h8.2c-1.2,4.4-3.7,8-7.3,10.7s-8.2,4.1-13.7,4.1-8.2-1-11.6-2.9-6.1-4.7-8-8.3-2.9-7.7-2.9-12.5.9-8.9,2.8-12.4c1.9-3.6,4.5-6.3,8-8.2,3.4-1.9,7.4-2.9,11.8-2.9s8.2.9,11.5,2.8,5.9,4.5,7.7,7.8c1.8,3.3,2.7,7,2.7,11.2s0,3-.2,4.6h-.1ZM265.4,150.4c-1.3-2.1-3-3.7-5.2-4.8-2.2-1.1-4.6-1.6-7.3-1.6s-7.1,1.2-9.8,3.7c-2.7,2.4-4.2,5.8-4.6,10.2h28.9c0-2.9-.6-5.4-1.9-7.5h-.1Z"/>
              <path class="cls-1" d="M298.5,139.7c2.5-1.4,5.5-2.2,9-2.2v7.8h-2c-8.5,0-12.8,4.6-12.8,13.8v24.9h-7.6v-45.7h7.6v7.4c1.3-2.6,3.2-4.6,5.7-6.1h0Z"/>
              <path class="cls-1" d="M316.3,148.8c1.9-3.5,4.5-6.3,7.8-8.2,3.3-1.9,7-2.9,11.1-2.9s7.5.9,10.4,2.6,5.1,3.9,6.6,6.5v-8.3h7.7v45.7h-7.7v-8.5c-1.5,2.7-3.7,4.9-6.7,6.6-3,1.8-6.4,2.6-10.4,2.6s-7.7-1-11-3-5.9-4.8-7.8-8.4c-1.9-3.6-2.8-7.7-2.8-12.3s.9-8.8,2.8-12.3h0ZM350.1,152.1c-1.4-2.6-3.3-4.5-5.6-5.9-2.4-1.4-5-2-7.8-2s-5.4.7-7.8,2c-2.3,1.3-4.2,3.3-5.6,5.8-1.4,2.6-2.1,5.6-2.1,9s.7,6.5,2.1,9.1c1.4,2.6,3.3,4.6,5.6,5.9,2.3,1.4,4.9,2,7.8,2s5.4-.7,7.8-2c2.4-1.4,4.2-3.3,5.6-5.9,1.4-2.6,2.1-5.6,2.1-9s-.7-6.4-2.1-9Z"/>
              <path class="cls-1" d="M381.9,144.6v26.9c0,2.2.5,3.8,1.4,4.7s2.6,1.4,4.9,1.4h5.6v6.4h-6.8c-4.2,0-7.4-1-9.5-2.9s-3.2-5.1-3.2-9.6v-26.9h-5.9v-6.3h5.9v-11.5h7.6v11.5h11.9v6.3h-11.9Z"/>
              <path class="cls-1" d="M444.5,164.1h-36.5c.3,4.5,1.8,8,4.6,10.5s6.2,3.8,10.2,3.8,6-.8,8.2-2.3,3.7-3.6,4.6-6.1h8.2c-1.2,4.4-3.7,8-7.3,10.7-3.7,2.8-8.2,4.1-13.7,4.1s-8.2-1-11.6-2.9c-3.4-1.9-6.1-4.7-8-8.3s-2.9-7.7-2.9-12.5.9-8.9,2.8-12.4c1.9-3.6,4.5-6.3,8-8.2,3.4-1.9,7.4-2.9,11.8-2.9s8.2.9,11.5,2.8,5.9,4.5,7.7,7.8c1.8,3.3,2.7,7,2.7,11.2s0,3-.2,4.6h0ZM435,150.4c-1.3-2.1-3-3.7-5.2-4.8-2.2-1.1-4.6-1.6-7.3-1.6s-7.1,1.2-9.8,3.7c-2.7,2.4-4.2,5.8-4.6,10.2h28.9c0-2.9-.6-5.4-1.9-7.5h-.1Z"/>
              <path class="cls-1" d="M491.4,164c4-3.6,7.4-7.5,10.1-11.4,2.8-4,4.1-7.9,4.1-11.7s-.9-6.5-2.6-8.5c-1.8-2.1-4.6-3.1-8.5-3.1s-6.7,1.2-8.8,3.5c-2.1,2.4-3.2,5.5-3.4,9.5h-7.3c.2-6.2,2.1-11,5.7-14.4,3.6-3.4,8.1-5.1,13.8-5.1s10.3,1.6,13.6,4.8c3.4,3.2,5,7.5,5,13.1s-1.4,9.1-4.1,13.5c-2.8,4.4-5.9,8.2-9.4,11.5s-8,7.2-13.4,11.6h28.7v6.3h-40.1v-5.4c7.1-5.7,12.6-10.3,16.6-14v-.2Z"/>
              <path class="cls-1" d="M528.4,130.9c3.1-5.4,8.6-8,16.3-8s13.1,2.7,16.3,8c3.1,5.4,4.7,12.8,4.7,22.4s-1.6,17.3-4.7,22.7c-3.1,5.4-8.5,8.1-16.3,8.1s-13.2-2.7-16.3-8.1c-3.1-5.4-4.7-13-4.7-22.7s1.6-17,4.7-22.4ZM557.2,141c-.6-3.4-1.9-6.1-3.9-8.1-2-2.1-4.8-3.1-8.5-3.1s-6.7,1-8.6,3.1c-2,2.1-3.3,4.8-3.9,8.1-.6,3.4-1,7.5-1,12.3s.3,9.2,1,12.6c.6,3.4,1.9,6.1,3.9,8.2,2,2.1,4.9,3.1,8.6,3.1s6.6-1,8.5-3.1c2-2.1,3.3-4.8,3.9-8.2.6-3.4,1-7.6,1-12.6s-.3-8.9-1-12.3Z"/>
              <path class="cls-1" d="M591.7,164c4-3.6,7.4-7.5,10.1-11.4,2.8-4,4.1-7.9,4.1-11.7s-.9-6.5-2.6-8.5c-1.8-2.1-4.6-3.1-8.5-3.1s-6.7,1.2-8.8,3.5c-2.1,2.4-3.2,5.5-3.4,9.5h-7.3c.2-6.2,2.1-11,5.7-14.4,3.6-3.4,8.1-5.1,13.8-5.1s10.3,1.6,13.6,4.8c3.4,3.2,5,7.5,5,13.1s-1.4,9.1-4.1,13.5c-2.8,4.4-5.9,8.2-9.4,11.5s-8,7.2-13.4,11.6h28.7v6.3h-40.1v-5.4c7.1-5.7,12.6-10.3,16.6-14v-.2Z"/>
              <path class="cls-1" d="M629.8,127c3.6-2.9,8.2-4.3,13.8-4.3s7,.7,9.8,2c2.8,1.4,4.8,3.2,6.3,5.5,1.4,2.3,2.1,5,2.1,7.9s-1,6.4-3,8.9-4.5,4.1-7.7,4.8v.4c3.6.9,6.5,2.6,8.6,5.3,2.1,2.6,3.2,6,3.2,10.3s-.7,6-2.2,8.5c-1.4,2.5-3.6,4.5-6.5,6-2.9,1.4-6.4,2.2-10.4,2.2-5.9,0-10.7-1.5-14.5-4.6s-5.9-7.5-6.3-13.1h7.3c.4,3.3,1.8,6.1,4.1,8.2,2.3,2.1,5.4,3.2,9.3,3.2s6.9-1,8.9-3,3-4.7,3-7.9-1.4-7.2-4.2-9-7-2.8-12.6-2.8h-1.9v-6.3h2c5.1,0,9-.9,11.6-2.5,2.6-1.6,3.9-4.2,3.9-7.6s-1-5.3-2.9-7.1c-1.9-1.8-4.7-2.7-8.2-2.7s-6.2.9-8.3,2.7c-2.1,1.8-3.4,4.2-3.8,7.2h-7.4c.4-5.1,2.4-9.1,5.9-12v-.2Z"/>
            </g>
          </g>
        </g>
      </g>
    </g>
  </g>
</svg>